<?xml version="1.0" encoding="UTF-8" standalone="no"?>
<!DOCTYPE svg PUBLIC "-//W3C//DTD SVG 1.1//EN"
 "http://www.w3.org/Graphics/SVG/1.1/DTD/svg11.dtd">
<!-- Generated by graphviz version 2.40.1 (20161225.0304)
 -->
<!-- Title: dependencies Pages: 1 -->
<svg width="533pt" height="211pt"
 viewBox="0.00 0.00 533.00 211.00" xmlns="http://www.w3.org/2000/svg" xmlns:xlink="http://www.w3.org/1999/xlink">
<g id="graph0" class="graph" transform="scale(1 1) rotate(0) translate(4 207)">
<title>dependencies</title>
<polygon fill="#ffffff" stroke="transparent" points="-4,4 -4,-207 529,-207 529,4 -4,4"/>
<text text-anchor="start" x="241.5091" y="-42.4" font-family="sans-serif" font-weight="bold" font-size="14.00" fill="#000000">Legend</text>
<polygon fill="#ffffb3" stroke="transparent" points="28.5,-10 28.5,-30 48.5,-30 48.5,-10 28.5,-10"/>
<text text-anchor="start" x="52.129" y="-15.4" font-family="sans-serif" font-size="14.00" fill="#000000"> &#160;Declarations</text>
<polygon fill="#8dd3c7" stroke="transparent" points="141.5,-10 141.5,-30 161.5,-30 161.5,-10 141.5,-10"/>
<text text-anchor="start" x="165.2251" y="-15.4" font-family="sans-serif" font-size="14.00" fill="#000000"> &#160;Module</text>
<polygon fill="#80b1d3" stroke="transparent" points="227.5,-10 227.5,-30 247.5,-30 247.5,-10 227.5,-10"/>
<text text-anchor="start" x="251.2812" y="-15.4" font-family="sans-serif" font-size="14.00" fill="#000000"> &#160;Bootstrap</text>
<polygon fill="#fdb462" stroke="transparent" points="324.5,-10 324.5,-30 344.5,-30 344.5,-10 324.5,-10"/>
<text text-anchor="start" x="348.1732" y="-15.4" font-family="sans-serif" font-size="14.00" fill="#000000"> &#160;Providers</text>
<polygon fill="#fb8072" stroke="transparent" points="420.5,-10 420.5,-30 440.5,-30 440.5,-10 420.5,-10"/>
<text text-anchor="start" x="444.2258" y="-15.4" font-family="sans-serif" font-size="14.00" fill="#000000"> &#160;Exports</text>
<g id="clust1" class="cluster">
<title>cluster_ErrorModule</title>
<polygon fill="none" stroke="#000000" stroke-dasharray="1,5" points="8,-70 8,-195 517,-195 517,-70 8,-70"/>
</g>
<g id="clust2" class="cluster">
<title>cluster_ErrorModule_declarations</title>
<polygon fill="none" stroke="#000000" points="174,-78 174,-130 509,-130 509,-78 174,-78"/>
</g>
<g id="clust5" class="cluster">
<title>cluster_ErrorModule_imports</title>
<polygon fill="none" stroke="#000000" points="16,-78 16,-130 166,-130 166,-78 16,-78"/>
</g>
<!-- CommonErrorComponent -->
<g id="node1" class="node">
<title>CommonErrorComponent</title>
<polygon fill="#ffffb3" stroke="#000000" points="501.4846,-122 338.5154,-122 338.5154,-86 501.4846,-86 501.4846,-122"/>
<text text-anchor="middle" x="420" y="-99.8" font-family="Times,serif" font-size="14.00" fill="#000000">CommonErrorComponent</text>
</g>
<!-- ErrorModule -->
<g id="node3" class="node">
<title>ErrorModule</title>
<polygon fill="#8dd3c7" stroke="#000000" points="295.5842,-187 292.5842,-191 271.5842,-191 268.5842,-187 206.4158,-187 206.4158,-151 295.5842,-151 295.5842,-187"/>
<text text-anchor="middle" x="251" y="-164.8" font-family="Times,serif" font-size="14.00" fill="#000000">ErrorModule</text>
</g>
<!-- CommonErrorComponent&#45;&gt;ErrorModule -->
<g id="edge1" class="edge">
<title>CommonErrorComponent&#45;&gt;ErrorModule</title>
<path fill="none" stroke="#000000" d="M420,-122.1061C420,-141.3391 420,-169 420,-169 420,-169 305.8452,-169 305.8452,-169"/>
<polygon fill="#000000" stroke="#000000" points="305.8452,-165.5001 295.8452,-169 305.8452,-172.5001 305.8452,-165.5001"/>
</g>
<!-- NotFoundComponent -->
<g id="node2" class="node">
<title>NotFoundComponent</title>
<polygon fill="#ffffb3" stroke="#000000" points="320.1122,-122 181.8878,-122 181.8878,-86 320.1122,-86 320.1122,-122"/>
<text text-anchor="middle" x="251" y="-99.8" font-family="Times,serif" font-size="14.00" fill="#000000">NotFoundComponent</text>
</g>
<!-- NotFoundComponent&#45;&gt;ErrorModule -->
<g id="edge2" class="edge">
<title>NotFoundComponent&#45;&gt;ErrorModule</title>
<path fill="none" stroke="#000000" d="M251,-122.1061C251,-122.1061 251,-140.991 251,-140.991"/>
<polygon fill="#000000" stroke="#000000" points="247.5001,-140.9909 251,-150.991 254.5001,-140.991 247.5001,-140.9909"/>
</g>
<!-- ErrorRoutingModule -->
<g id="node4" class="node">
<title>ErrorRoutingModule</title>
<polygon fill="#8dd3c7" stroke="#000000" points="158.2022,-122 155.2022,-126 134.2022,-126 131.2022,-122 23.7978,-122 23.7978,-86 158.2022,-86 158.2022,-122"/>
<text text-anchor="middle" x="91" y="-99.8" font-family="Times,serif" font-size="14.00" fill="#000000">ErrorRoutingModule</text>
</g>
<!-- ErrorRoutingModule&#45;&gt;ErrorModule -->
<g id="edge3" class="edge">
<title>ErrorRoutingModule&#45;&gt;ErrorModule</title>
<path fill="none" stroke="#000000" d="M91,-122.1061C91,-141.3391 91,-169 91,-169 91,-169 196.4311,-169 196.4311,-169"/>
<polygon fill="#000000" stroke="#000000" points="196.4311,-172.5001 206.4311,-169 196.431,-165.5001 196.4311,-172.5001"/>
</g>
</g>
</svg>
