<?xml version="1.0" encoding="UTF-8" standalone="no"?>
<!DOCTYPE svg PUBLIC "-//W3C//DTD SVG 1.1//EN"
 "http://www.w3.org/Graphics/SVG/1.1/DTD/svg11.dtd">
<!-- Generated by graphviz version 2.40.1 (20161225.0304)
 -->
<!-- Title: dependencies Pages: 1 -->
<svg width="777pt" height="211pt"
 viewBox="0.00 0.00 777.00 211.00" xmlns="http://www.w3.org/2000/svg" xmlns:xlink="http://www.w3.org/1999/xlink">
<g id="graph0" class="graph" transform="scale(1 1) rotate(0) translate(4 207)">
<title>dependencies</title>
<polygon fill="#ffffff" stroke="transparent" points="-4,4 -4,-207 773,-207 773,4 -4,4"/>
<text text-anchor="start" x="363.5091" y="-42.4" font-family="sans-serif" font-weight="bold" font-size="14.00" fill="#000000">Legend</text>
<polygon fill="#ffffb3" stroke="transparent" points="150.5,-10 150.5,-30 170.5,-30 170.5,-10 150.5,-10"/>
<text text-anchor="start" x="174.129" y="-15.4" font-family="sans-serif" font-size="14.00" fill="#000000"> &#160;Declarations</text>
<polygon fill="#8dd3c7" stroke="transparent" points="263.5,-10 263.5,-30 283.5,-30 283.5,-10 263.5,-10"/>
<text text-anchor="start" x="287.2251" y="-15.4" font-family="sans-serif" font-size="14.00" fill="#000000"> &#160;Module</text>
<polygon fill="#80b1d3" stroke="transparent" points="349.5,-10 349.5,-30 369.5,-30 369.5,-10 349.5,-10"/>
<text text-anchor="start" x="373.2812" y="-15.4" font-family="sans-serif" font-size="14.00" fill="#000000"> &#160;Bootstrap</text>
<polygon fill="#fdb462" stroke="transparent" points="446.5,-10 446.5,-30 466.5,-30 466.5,-10 446.5,-10"/>
<text text-anchor="start" x="470.1732" y="-15.4" font-family="sans-serif" font-size="14.00" fill="#000000"> &#160;Providers</text>
<polygon fill="#fb8072" stroke="transparent" points="542.5,-10 542.5,-30 562.5,-30 562.5,-10 542.5,-10"/>
<text text-anchor="start" x="566.2258" y="-15.4" font-family="sans-serif" font-size="14.00" fill="#000000"> &#160;Exports</text>
<g id="clust1" class="cluster">
<title>cluster_ErrorModule</title>
<polygon fill="none" stroke="#000000" stroke-dasharray="1,5" points="8,-70 8,-195 761,-195 761,-70 8,-70"/>
</g>
<g id="clust2" class="cluster">
<title>cluster_ErrorModule_declarations</title>
<polygon fill="none" stroke="#000000" points="174,-78 174,-130 753,-130 753,-78 174,-78"/>
</g>
<g id="clust6" class="cluster">
<title>cluster_ErrorModule_imports</title>
<polygon fill="none" stroke="#000000" points="16,-78 16,-130 166,-130 166,-78 16,-78"/>
</g>
<!-- CommonErrorComponent -->
<g id="node1" class="node">
<title>CommonErrorComponent</title>
<polygon fill="#ffffb3" stroke="#000000" points="745.4846,-122 582.5154,-122 582.5154,-86 745.4846,-86 745.4846,-122"/>
<text text-anchor="middle" x="664" y="-99.8" font-family="Times,serif" font-size="14.00" fill="#000000">CommonErrorComponent</text>
</g>
<!-- ErrorModule -->
<g id="node4" class="node">
<title>ErrorModule</title>
<polygon fill="#8dd3c7" stroke="#000000" points="439.5842,-187 436.5842,-191 415.5842,-191 412.5842,-187 350.4158,-187 350.4158,-151 439.5842,-151 439.5842,-187"/>
<text text-anchor="middle" x="395" y="-164.8" font-family="Times,serif" font-size="14.00" fill="#000000">ErrorModule</text>
</g>
<!-- CommonErrorComponent&#45;&gt;ErrorModule -->
<g id="edge1" class="edge">
<title>CommonErrorComponent&#45;&gt;ErrorModule</title>
<path fill="none" stroke="#000000" d="M664,-122.1061C664,-141.3391 664,-169 664,-169 664,-169 449.7218,-169 449.7218,-169"/>
<polygon fill="#000000" stroke="#000000" points="449.7219,-165.5001 439.7218,-169 449.7218,-172.5001 449.7219,-165.5001"/>
</g>
<!-- NotFoundComponent -->
<g id="node2" class="node">
<title>NotFoundComponent</title>
<polygon fill="#ffffb3" stroke="#000000" points="564.1122,-122 425.8878,-122 425.8878,-86 564.1122,-86 564.1122,-122"/>
<text text-anchor="middle" x="495" y="-99.8" font-family="Times,serif" font-size="14.00" fill="#000000">NotFoundComponent</text>
</g>
<!-- NotFoundComponent&#45;&gt;ErrorModule -->
<g id="edge2" class="edge">
<title>NotFoundComponent&#45;&gt;ErrorModule</title>
<path fill="none" stroke="#000000" d="M432.743,-122.1061C432.743,-122.1061 432.743,-140.991 432.743,-140.991"/>
<polygon fill="#000000" stroke="#000000" points="429.2431,-140.9909 432.743,-150.991 436.2431,-140.991 429.2431,-140.9909"/>
</g>
<!-- NotFoundMessageSwitchComponent -->
<g id="node3" class="node">
<title>NotFoundMessageSwitchComponent</title>
<polygon fill="#ffffb3" stroke="#000000" points="407.9748,-122 182.0252,-122 182.0252,-86 407.9748,-86 407.9748,-122"/>
<text text-anchor="middle" x="295" y="-99.8" font-family="Times,serif" font-size="14.00" fill="#000000">NotFoundMessageSwitchComponent</text>
</g>
<!-- NotFoundMessageSwitchComponent&#45;&gt;ErrorModule -->
<g id="edge3" class="edge">
<title>NotFoundMessageSwitchComponent&#45;&gt;ErrorModule</title>
<path fill="none" stroke="#000000" d="M379.2227,-122.1061C379.2227,-122.1061 379.2227,-140.991 379.2227,-140.991"/>
<polygon fill="#000000" stroke="#000000" points="375.7227,-140.9909 379.2227,-150.991 382.7227,-140.991 375.7227,-140.9909"/>
</g>
<!-- ErrorRoutingModule -->
<g id="node5" class="node">
<title>ErrorRoutingModule</title>
<polygon fill="#8dd3c7" stroke="#000000" points="158.2022,-122 155.2022,-126 134.2022,-126 131.2022,-122 23.7978,-122 23.7978,-86 158.2022,-86 158.2022,-122"/>
<text text-anchor="middle" x="91" y="-99.8" font-family="Times,serif" font-size="14.00" fill="#000000">ErrorRoutingModule</text>
</g>
<!-- ErrorRoutingModule&#45;&gt;ErrorModule -->
<g id="edge4" class="edge">
<title>ErrorRoutingModule&#45;&gt;ErrorModule</title>
<path fill="none" stroke="#000000" d="M91,-122.1061C91,-141.3391 91,-169 91,-169 91,-169 340.1438,-169 340.1438,-169"/>
<polygon fill="#000000" stroke="#000000" points="340.1438,-172.5001 350.1438,-169 340.1437,-165.5001 340.1438,-172.5001"/>
</g>
</g>
</svg>
