<?xml version="1.0" encoding="UTF-8" standalone="no"?>
<!DOCTYPE svg PUBLIC "-//W3C//DTD SVG 1.1//EN"
 "http://www.w3.org/Graphics/SVG/1.1/DTD/svg11.dtd">
<!-- Generated by graphviz version 2.40.1 (20161225.0304)
 -->
<!-- Title: dependencies Pages: 1 -->
<svg width="5871pt" height="298pt"
 viewBox="0.00 0.00 5871.00 298.00" xmlns="http://www.w3.org/2000/svg" xmlns:xlink="http://www.w3.org/1999/xlink">
<g id="graph0" class="graph" transform="scale(1 1) rotate(0) translate(4 294)">
<title>dependencies</title>
<polygon fill="#ffffff" stroke="transparent" points="-4,4 -4,-294 5867,-294 5867,4 -4,4"/>
<text text-anchor="start" x="2910.5091" y="-42.4" font-family="sans-serif" font-weight="bold" font-size="14.00" fill="#000000">Legend</text>
<polygon fill="#ffffb3" stroke="transparent" points="2697.5,-10 2697.5,-30 2717.5,-30 2717.5,-10 2697.5,-10"/>
<text text-anchor="start" x="2721.129" y="-15.4" font-family="sans-serif" font-size="14.00" fill="#000000"> &#160;Declarations</text>
<polygon fill="#8dd3c7" stroke="transparent" points="2810.5,-10 2810.5,-30 2830.5,-30 2830.5,-10 2810.5,-10"/>
<text text-anchor="start" x="2834.2251" y="-15.4" font-family="sans-serif" font-size="14.00" fill="#000000"> &#160;Module</text>
<polygon fill="#80b1d3" stroke="transparent" points="2896.5,-10 2896.5,-30 2916.5,-30 2916.5,-10 2896.5,-10"/>
<text text-anchor="start" x="2920.2812" y="-15.4" font-family="sans-serif" font-size="14.00" fill="#000000"> &#160;Bootstrap</text>
<polygon fill="#fdb462" stroke="transparent" points="2993.5,-10 2993.5,-30 3013.5,-30 3013.5,-10 2993.5,-10"/>
<text text-anchor="start" x="3017.1732" y="-15.4" font-family="sans-serif" font-size="14.00" fill="#000000"> &#160;Providers</text>
<polygon fill="#fb8072" stroke="transparent" points="3089.5,-10 3089.5,-30 3109.5,-30 3109.5,-10 3089.5,-10"/>
<text text-anchor="start" x="3113.2258" y="-15.4" font-family="sans-serif" font-size="14.00" fill="#000000"> &#160;Exports</text>
<g id="clust1" class="cluster">
<title>cluster_AppModule</title>
<polygon fill="none" stroke="#000000" stroke-dasharray="1,5" points="8,-70 8,-282 1387,-282 1387,-70 8,-70"/>
</g>
<g id="clust2" class="cluster">
<title>cluster_AppModule_declarations</title>
<polygon fill="none" stroke="#000000" points="560,-78 560,-130 822,-130 822,-78 560,-78"/>
</g>
<g id="clust5" class="cluster">
<title>cluster_AppModule_imports</title>
<polygon fill="none" stroke="#000000" points="830,-78 830,-130 1379,-130 1379,-78 830,-78"/>
</g>
<g id="clust7" class="cluster">
<title>cluster_AppModule_bootstrap</title>
<polygon fill="none" stroke="#000000" points="699,-222 699,-274 823,-274 823,-222 699,-222"/>
</g>
<g id="clust8" class="cluster">
<title>cluster_AppModule_providers</title>
<polygon fill="none" stroke="#000000" points="16,-78 16,-130 552,-130 552,-78 16,-78"/>
</g>
<g id="clust15" class="cluster">
<title>cluster_CountdownTimerModule</title>
<polygon fill="none" stroke="#000000" stroke-dasharray="1,5" points="3281,-70 3281,-282 3485,-282 3485,-70 3281,-70"/>
</g>
<g id="clust16" class="cluster">
<title>cluster_CountdownTimerModule_declarations</title>
<polygon fill="none" stroke="#000000" points="3292,-78 3292,-130 3476,-130 3476,-78 3292,-78"/>
</g>
<g id="clust19" class="cluster">
<title>cluster_CountdownTimerModule_exports</title>
<polygon fill="none" stroke="#000000" points="3289,-222 3289,-274 3477,-274 3477,-222 3289,-222"/>
</g>
<g id="clust22" class="cluster">
<title>cluster_MainMapModule</title>
<polygon fill="none" stroke="#000000" stroke-dasharray="1,5" points="1395,-146 1395,-214 1701,-214 1701,-146 1395,-146"/>
</g>
<g id="clust23" class="cluster">
<title>cluster_MainMapModule_declarations</title>
<polygon fill="none" stroke="#000000" points="1553,-154 1553,-206 1693,-206 1693,-154 1553,-154"/>
</g>
<g id="clust26" class="cluster">
<title>cluster_MainMapModule_exports</title>
<polygon fill="none" stroke="#000000" points="1403,-154 1403,-206 1545,-206 1545,-154 1403,-154"/>
</g>
<g id="clust29" class="cluster">
<title>cluster_MainToolbarModule</title>
<polygon fill="none" stroke="#000000" stroke-dasharray="1,5" points="1709,-146 1709,-214 2957,-214 2957,-146 1709,-146"/>
</g>
<g id="clust30" class="cluster">
<title>cluster_MainToolbarModule_declarations</title>
<polygon fill="none" stroke="#000000" points="2341,-154 2341,-206 2949,-206 2949,-154 2341,-154"/>
</g>
<g id="clust35" class="cluster">
<title>cluster_MainToolbarModule_exports</title>
<polygon fill="none" stroke="#000000" points="1717,-154 1717,-206 2333,-206 2333,-154 1717,-154"/>
</g>
<g id="clust38" class="cluster">
<title>cluster_MapHeaderBoxModule</title>
<polygon fill="none" stroke="#000000" stroke-dasharray="1,5" points="4064,-70 4064,-282 4270,-282 4270,-70 4064,-70"/>
</g>
<g id="clust39" class="cluster">
<title>cluster_MapHeaderBoxModule_declarations</title>
<polygon fill="none" stroke="#000000" points="4074,-78 4074,-130 4260,-130 4260,-78 4074,-78"/>
</g>
<g id="clust42" class="cluster">
<title>cluster_MapHeaderBoxModule_exports</title>
<polygon fill="none" stroke="#000000" points="4072,-222 4072,-274 4262,-274 4262,-222 4072,-222"/>
</g>
<g id="clust45" class="cluster">
<title>cluster_NotFoundModule</title>
<polygon fill="none" stroke="#000000" stroke-dasharray="1,5" points="5323,-70 5323,-206 5679,-206 5679,-70 5323,-70"/>
</g>
<g id="clust46" class="cluster">
<title>cluster_NotFoundModule_declarations</title>
<polygon fill="none" stroke="#000000" points="5517,-78 5517,-130 5671,-130 5671,-78 5517,-78"/>
</g>
<g id="clust48" class="cluster">
<title>cluster_NotFoundModule_imports</title>
<polygon fill="none" stroke="#000000" points="5331,-78 5331,-130 5509,-130 5509,-78 5331,-78"/>
</g>
<g id="clust58" class="cluster">
<title>cluster_SidebarModule</title>
<polygon fill="none" stroke="#000000" stroke-dasharray="1,5" points="2965,-146 2965,-214 3273,-214 3273,-146 2965,-146"/>
</g>
<g id="clust59" class="cluster">
<title>cluster_SidebarModule_declarations</title>
<polygon fill="none" stroke="#000000" points="3125,-154 3125,-206 3265,-206 3265,-154 3125,-154"/>
</g>
<g id="clust62" class="cluster">
<title>cluster_SidebarModule_exports</title>
<polygon fill="none" stroke="#000000" points="2973,-154 2973,-206 3117,-206 3117,-154 2973,-154"/>
</g>
<g id="clust65" class="cluster">
<title>cluster_StopModule</title>
<polygon fill="none" stroke="#000000" stroke-dasharray="1,5" points="4278,-146 4278,-274 5315,-274 5315,-146 4278,-146"/>
</g>
<g id="clust66" class="cluster">
<title>cluster_StopModule_declarations</title>
<polygon fill="none" stroke="#000000" points="4440,-154 4440,-206 5307,-206 5307,-154 4440,-154"/>
</g>
<g id="clust72" class="cluster">
<title>cluster_StopModule_imports</title>
<polygon fill="none" stroke="#000000" points="4286,-154 4286,-206 4432,-206 4432,-154 4286,-154"/>
</g>
<g id="clust82" class="cluster">
<title>cluster_StopsModule</title>
<polygon fill="none" stroke="#000000" stroke-dasharray="1,5" points="5687,-146 5687,-274 5855,-274 5855,-146 5687,-146"/>
</g>
<g id="clust84" class="cluster">
<title>cluster_StopsModule_imports</title>
<polygon fill="none" stroke="#000000" points="5695,-154 5695,-206 5847,-206 5847,-154 5695,-154"/>
</g>
<g id="clust88" class="cluster">
<title>cluster_StopsRoutingModule</title>
<polygon fill="none" stroke="#000000" stroke-dasharray="1,5" points="5687,-70 5687,-138 5855,-138 5855,-70 5687,-70"/>
</g>
<g id="clust89" class="cluster">
<title>cluster_StopsRoutingModule_declarations</title>
<polygon fill="none" stroke="#000000" points="5695,-78 5695,-130 5847,-130 5847,-78 5695,-78"/>
</g>
<g id="clust95" class="cluster">
<title>cluster_TripPassagesModule</title>
<polygon fill="none" stroke="#000000" stroke-dasharray="1,5" points="3493,-146 3493,-274 4056,-274 4056,-146 3493,-146"/>
</g>
<g id="clust96" class="cluster">
<title>cluster_TripPassagesModule_declarations</title>
<polygon fill="none" stroke="#000000" points="3703,-154 3703,-206 4048,-206 4048,-154 3703,-154"/>
</g>
<g id="clust99" class="cluster">
<title>cluster_TripPassagesModule_imports</title>
<polygon fill="none" stroke="#000000" points="3501,-154 3501,-206 3695,-206 3695,-154 3501,-154"/>
</g>
<!-- AppComponent -->
<g id="node1" class="node">
<title>AppComponent</title>
<polygon fill="#ffffb3" stroke="#000000" points="813.9399,-122 708.0601,-122 708.0601,-86 813.9399,-86 813.9399,-122"/>
<text text-anchor="middle" x="761" y="-99.8" font-family="Times,serif" font-size="14.00" fill="#000000">AppComponent</text>
</g>
<!-- AppModule -->
<g id="node3" class="node">
<title>AppModule</title>
<polygon fill="#8dd3c7" stroke="#000000" points="802.6571,-198 799.6571,-202 778.6571,-202 775.6571,-198 719.3429,-198 719.3429,-162 802.6571,-162 802.6571,-198"/>
<text text-anchor="middle" x="761" y="-175.8" font-family="Times,serif" font-size="14.00" fill="#000000">AppModule</text>
</g>
<!-- AppComponent&#45;&gt;AppModule -->
<g id="edge1" class="edge">
<title>AppComponent&#45;&gt;AppModule</title>
<path fill="none" stroke="#000000" d="M761,-122.0109C761,-122.0109 761,-151.855 761,-151.855"/>
<polygon fill="#000000" stroke="#000000" points="757.5001,-151.8549 761,-161.855 764.5001,-151.855 757.5001,-151.8549"/>
</g>
<!-- DrawableDirective -->
<g id="node2" class="node">
<title>DrawableDirective</title>
<polygon fill="#ffffb3" stroke="#000000" points="690.492,-122 567.508,-122 567.508,-86 690.492,-86 690.492,-122"/>
<text text-anchor="middle" x="629" y="-99.8" font-family="Times,serif" font-size="14.00" fill="#000000">DrawableDirective</text>
</g>
<!-- DrawableDirective&#45;&gt;AppModule -->
<g id="edge2" class="edge">
<title>DrawableDirective&#45;&gt;AppModule</title>
<path fill="none" stroke="#000000" d="M629,-122.0348C629,-141.5762 629,-170 629,-170 629,-170 709.2344,-170 709.2344,-170"/>
<polygon fill="#000000" stroke="#000000" points="709.2344,-173.5001 719.2344,-170 709.2343,-166.5001 709.2344,-173.5001"/>
</g>
<!-- AppComponent  -->
<g id="node8" class="node">
<title>AppComponent </title>
<polygon fill="#80b1d3" stroke="#000000" points="815.439,-266 706.561,-266 706.561,-230 815.439,-230 815.439,-266"/>
<text text-anchor="middle" x="761" y="-243.8" font-family="Times,serif" font-size="14.00" fill="#000000">AppComponent </text>
</g>
<!-- AppModule&#45;&gt;AppComponent  -->
<g id="edge7" class="edge">
<title>AppModule&#45;&gt;AppComponent </title>
<path fill="none" stroke="#000000" stroke-dasharray="1,5" d="M761,-198.2228C761,-198.2228 761,-219.7269 761,-219.7269"/>
<polygon fill="#000000" stroke="#000000" points="757.5001,-219.7269 761,-229.7269 764.5001,-219.727 757.5001,-219.7269"/>
</g>
<!-- AppRoutingModule -->
<g id="node4" class="node">
<title>AppRoutingModule</title>
<polygon fill="#8dd3c7" stroke="#000000" points="966.2744,-122 963.2744,-126 942.2744,-126 939.2744,-122 837.7256,-122 837.7256,-86 966.2744,-86 966.2744,-122"/>
<text text-anchor="middle" x="902" y="-99.8" font-family="Times,serif" font-size="14.00" fill="#000000">AppRoutingModule</text>
</g>
<!-- AppRoutingModule&#45;&gt;AppModule -->
<g id="edge3" class="edge">
<title>AppRoutingModule&#45;&gt;AppModule</title>
<path fill="none" stroke="#000000" d="M902,-122.0267C902,-142.7672 902,-174 902,-174 902,-174 812.9229,-174 812.9229,-174"/>
<polygon fill="#000000" stroke="#000000" points="812.9229,-170.5001 802.9229,-174 812.9229,-177.5001 812.9229,-170.5001"/>
</g>
<!-- MainMapModule -->
<g id="node5" class="node">
<title>MainMapModule</title>
<polygon fill="#8dd3c7" stroke="#000000" points="1099.2591,-122 1096.2591,-126 1075.2591,-126 1072.2591,-122 984.7409,-122 984.7409,-86 1099.2591,-86 1099.2591,-122"/>
<text text-anchor="middle" x="1042" y="-99.8" font-family="Times,serif" font-size="14.00" fill="#000000">MainMapModule</text>
</g>
<!-- MainMapModule&#45;&gt;AppModule -->
<g id="edge4" class="edge">
<title>MainMapModule&#45;&gt;AppModule</title>
<path fill="none" stroke="#000000" d="M1042,-122.0109C1042,-144.4852 1042,-180 1042,-180 1042,-180 812.7651,-180 812.7651,-180"/>
<polygon fill="#000000" stroke="#000000" points="812.7652,-176.5001 802.7651,-180 812.7651,-183.5001 812.7652,-176.5001"/>
</g>
<!-- MainMapDirective  -->
<g id="node16" class="node">
<title>MainMapDirective </title>
<polygon fill="#fb8072" stroke="#000000" points="1537.292,-198 1410.708,-198 1410.708,-162 1537.292,-162 1537.292,-198"/>
<text text-anchor="middle" x="1474" y="-175.8" font-family="Times,serif" font-size="14.00" fill="#000000">MainMapDirective </text>
</g>
<!-- MainMapModule&#45;&gt;MainMapDirective  -->
<g id="edge14" class="edge">
<title>MainMapModule&#45;&gt;MainMapDirective </title>
<path fill="none" stroke="#000000" stroke-dasharray="5,2" d="M1070.6897,-122.1686C1070.6897,-141.0898 1070.6897,-168 1070.6897,-168 1070.6897,-168 1400.5391,-168 1400.5391,-168"/>
<polygon fill="#000000" stroke="#000000" points="1400.5391,-171.5001 1410.5391,-168 1400.5391,-164.5001 1400.5391,-171.5001"/>
</g>
<!-- MainToolbarModule -->
<g id="node6" class="node">
<title>MainToolbarModule</title>
<polygon fill="#8dd3c7" stroke="#000000" points="1250.9187,-122 1247.9187,-126 1226.9187,-126 1223.9187,-122 1117.0813,-122 1117.0813,-86 1250.9187,-86 1250.9187,-122"/>
<text text-anchor="middle" x="1184" y="-99.8" font-family="Times,serif" font-size="14.00" fill="#000000">MainToolbarModule</text>
</g>
<!-- MainToolbarModule&#45;&gt;AppModule -->
<g id="edge5" class="edge">
<title>MainToolbarModule&#45;&gt;AppModule</title>
<path fill="none" stroke="#000000" d="M1234.0318,-122.1985C1234.0318,-146.3563 1234.0318,-186 1234.0318,-186 1234.0318,-186 812.9784,-186 812.9784,-186"/>
<polygon fill="#000000" stroke="#000000" points="812.9784,-182.5001 802.9784,-186 812.9784,-189.5001 812.9784,-182.5001"/>
</g>
<!-- MainToolbarComponent  -->
<g id="node20" class="node">
<title>MainToolbarComponent </title>
<polygon fill="#fb8072" stroke="#000000" points="2325.2009,-198 2166.7991,-198 2166.7991,-162 2325.2009,-162 2325.2009,-198"/>
<text text-anchor="middle" x="2246" y="-175.8" font-family="Times,serif" font-size="14.00" fill="#000000">MainToolbarComponent </text>
</g>
<!-- MainToolbarModule&#45;&gt;MainToolbarComponent  -->
<g id="edge18" class="edge">
<title>MainToolbarModule&#45;&gt;MainToolbarComponent </title>
<path fill="none" stroke="#000000" stroke-dasharray="5,2" d="M1217.3545,-122.1097C1217.3545,-131.897 1217.3545,-142 1217.3545,-142 1217.3545,-142 2246,-142 2246,-142 2246,-142 2246,-151.8903 2246,-151.8903"/>
<polygon fill="#000000" stroke="#000000" points="2242.5001,-151.8903 2246,-161.8903 2249.5001,-151.8904 2242.5001,-151.8903"/>
</g>
<!-- RouteLoadingIndicatorComponent  -->
<g id="node21" class="node">
<title>RouteLoadingIndicatorComponent </title>
<polygon fill="#fb8072" stroke="#000000" points="2148.9641,-198 1933.0359,-198 1933.0359,-162 2148.9641,-162 2148.9641,-198"/>
<text text-anchor="middle" x="2041" y="-175.8" font-family="Times,serif" font-size="14.00" fill="#000000">RouteLoadingIndicatorComponent </text>
</g>
<!-- MainToolbarModule&#45;&gt;RouteLoadingIndicatorComponent  -->
<g id="edge19" class="edge">
<title>MainToolbarModule&#45;&gt;RouteLoadingIndicatorComponent </title>
<path fill="none" stroke="#000000" stroke-dasharray="5,2" d="M1200.6773,-122.4854C1200.6773,-134.1399 1200.6773,-147 1200.6773,-147 1200.6773,-147 2041,-147 2041,-147 2041,-147 2041,-151.9551 2041,-151.9551"/>
<polygon fill="#000000" stroke="#000000" points="2037.5001,-151.9551 2041,-161.9551 2044.5001,-151.9552 2037.5001,-151.9551"/>
</g>
<!-- ToolbarSearchBoxComponent  -->
<g id="node22" class="node">
<title>ToolbarSearchBoxComponent </title>
<polygon fill="#fb8072" stroke="#000000" points="1915.0749,-198 1724.9251,-198 1724.9251,-162 1915.0749,-162 1915.0749,-198"/>
<text text-anchor="middle" x="1820" y="-175.8" font-family="Times,serif" font-size="14.00" fill="#000000">ToolbarSearchBoxComponent </text>
</g>
<!-- MainToolbarModule&#45;&gt;ToolbarSearchBoxComponent  -->
<g id="edge20" class="edge">
<title>MainToolbarModule&#45;&gt;ToolbarSearchBoxComponent </title>
<path fill="none" stroke="#000000" stroke-dasharray="5,2" d="M1184,-122.1467C1184,-135.7395 1184,-152 1184,-152 1184,-152 1820,-152 1820,-152 1820,-152 1820,-152.9793 1820,-152.9793"/>
<polygon fill="#000000" stroke="#000000" points="1816.5001,-151.793 1820,-161.793 1823.5001,-151.7931 1816.5001,-151.793"/>
</g>
<!-- SidebarModule -->
<g id="node7" class="node">
<title>SidebarModule</title>
<polygon fill="#8dd3c7" stroke="#000000" points="1371.3133,-122 1368.3133,-126 1347.3133,-126 1344.3133,-122 1268.6867,-122 1268.6867,-86 1371.3133,-86 1371.3133,-122"/>
<text text-anchor="middle" x="1320" y="-99.8" font-family="Times,serif" font-size="14.00" fill="#000000">SidebarModule</text>
</g>
<!-- SidebarModule&#45;&gt;AppModule -->
<g id="edge6" class="edge">
<title>SidebarModule&#45;&gt;AppModule</title>
<path fill="none" stroke="#000000" d="M1320,-122.2337C1320,-148.0094 1320,-192 1320,-192 1320,-192 813.0159,-192 813.0159,-192"/>
<polygon fill="#000000" stroke="#000000" points="813.0159,-188.5001 803.0159,-192 813.0158,-195.5001 813.0159,-188.5001"/>
</g>
<!-- SidebarComponent  -->
<g id="node30" class="node">
<title>SidebarComponent </title>
<polygon fill="#fb8072" stroke="#000000" points="3108.596,-198 2981.404,-198 2981.404,-162 3108.596,-162 3108.596,-198"/>
<text text-anchor="middle" x="3045" y="-175.8" font-family="Times,serif" font-size="14.00" fill="#000000">SidebarComponent </text>
</g>
<!-- SidebarModule&#45;&gt;SidebarComponent  -->
<g id="edge26" class="edge">
<title>SidebarModule&#45;&gt;SidebarComponent </title>
<path fill="none" stroke="#000000" stroke-dasharray="5,2" d="M1371.1578,-110C1657.1341,-110 3045,-110 3045,-110 3045,-110 3045,-151.9733 3045,-151.9733"/>
<polygon fill="#000000" stroke="#000000" points="3041.5001,-151.9732 3045,-161.9733 3048.5001,-151.9733 3041.5001,-151.9732"/>
</g>
<!-- SettingsService -->
<g id="node9" class="node">
<title>SettingsService</title>
<ellipse fill="#fdb462" stroke="#000000" cx="269" cy="-104" rx="71.221" ry="18"/>
<text text-anchor="middle" x="269" y="-99.8" font-family="Times,serif" font-size="14.00" fill="#000000">SettingsService</text>
</g>
<!-- SettingsService&#45;&gt;AppModule -->
<g id="edge8" class="edge">
<title>SettingsService&#45;&gt;AppModule</title>
<path fill="none" stroke="#000000" d="M269,-122.1532C269,-145.7566 269,-184 269,-184 269,-184 709.0524,-184 709.0524,-184"/>
<polygon fill="#000000" stroke="#000000" points="709.0524,-187.5001 719.0524,-184 709.0523,-180.5001 709.0524,-187.5001"/>
</g>
<!-- StopPointService -->
<g id="node10" class="node">
<title>StopPointService</title>
<ellipse fill="#fdb462" stroke="#000000" cx="102" cy="-104" rx="78.1868" ry="18"/>
<text text-anchor="middle" x="102" y="-99.8" font-family="Times,serif" font-size="14.00" fill="#000000">StopPointService</text>
</g>
<!-- StopPointService&#45;&gt;AppModule -->
<g id="edge9" class="edge">
<title>StopPointService&#45;&gt;AppModule</title>
<path fill="none" stroke="#000000" d="M102,-122.0265C102,-147.5093 102,-191 102,-191 102,-191 709.2767,-191 709.2767,-191"/>
<polygon fill="#000000" stroke="#000000" points="709.2767,-194.5001 719.2767,-191 709.2766,-187.5001 709.2767,-194.5001"/>
</g>
<!-- UserLocationService -->
<g id="node11" class="node">
<title>UserLocationService</title>
<ellipse fill="#fdb462" stroke="#000000" cx="451" cy="-104" rx="92.5919" ry="18"/>
<text text-anchor="middle" x="451" y="-99.8" font-family="Times,serif" font-size="14.00" fill="#000000">UserLocationService</text>
</g>
<!-- UserLocationService&#45;&gt;AppModule -->
<g id="edge10" class="edge">
<title>UserLocationService&#45;&gt;AppModule</title>
<path fill="none" stroke="#000000" d="M451,-122.0449C451,-143.6623 451,-177 451,-177 451,-177 709.192,-177 709.192,-177"/>
<polygon fill="#000000" stroke="#000000" points="709.1921,-180.5001 719.192,-177 709.192,-173.5001 709.1921,-180.5001"/>
</g>
<!-- CountdownTimerDirective -->
<g id="node12" class="node">
<title>CountdownTimerDirective</title>
<polygon fill="#ffffb3" stroke="#000000" points="3467.626,-122 3300.374,-122 3300.374,-86 3467.626,-86 3467.626,-122"/>
<text text-anchor="middle" x="3384" y="-99.8" font-family="Times,serif" font-size="14.00" fill="#000000">CountdownTimerDirective</text>
</g>
<!-- CountdownTimerModule -->
<g id="node13" class="node">
<title>CountdownTimerModule</title>
<polygon fill="#8dd3c7" stroke="#000000" points="3463.5926,-198 3460.5926,-202 3439.5926,-202 3436.5926,-198 3304.4074,-198 3304.4074,-162 3463.5926,-162 3463.5926,-198"/>
<text text-anchor="middle" x="3384" y="-175.8" font-family="Times,serif" font-size="14.00" fill="#000000">CountdownTimerModule</text>
</g>
<!-- CountdownTimerDirective&#45;&gt;CountdownTimerModule -->
<g id="edge11" class="edge">
<title>CountdownTimerDirective&#45;&gt;CountdownTimerModule</title>
<path fill="none" stroke="#000000" d="M3384,-122.0109C3384,-122.0109 3384,-151.855 3384,-151.855"/>
<polygon fill="#000000" stroke="#000000" points="3380.5001,-151.8549 3384,-161.855 3387.5001,-151.855 3380.5001,-151.8549"/>
</g>
<!-- CountdownTimerDirective  -->
<g id="node14" class="node">
<title>CountdownTimerDirective </title>
<polygon fill="#fb8072" stroke="#000000" points="3468.6256,-266 3297.3744,-266 3297.3744,-230 3468.6256,-230 3468.6256,-266"/>
<text text-anchor="middle" x="3383" y="-243.8" font-family="Times,serif" font-size="14.00" fill="#000000">CountdownTimerDirective </text>
</g>
<!-- CountdownTimerModule&#45;&gt;CountdownTimerDirective  -->
<g id="edge12" class="edge">
<title>CountdownTimerModule&#45;&gt;CountdownTimerDirective </title>
<path fill="none" stroke="#000000" stroke-dasharray="5,2" d="M3384,-198.2228C3384,-198.2228 3384,-219.7269 3384,-219.7269"/>
<polygon fill="#000000" stroke="#000000" points="3380.5001,-219.7269 3384,-229.7269 3387.5001,-219.727 3380.5001,-219.7269"/>
</g>
<!-- TripPassagesModule -->
<g id="node43" class="node">
<title>TripPassagesModule</title>
<polygon fill="#8dd3c7" stroke="#000000" points="3855.9144,-266 3852.9144,-270 3831.9144,-270 3828.9144,-266 3722.0856,-266 3722.0856,-230 3855.9144,-230 3855.9144,-266"/>
<text text-anchor="middle" x="3789" y="-243.8" font-family="Times,serif" font-size="14.00" fill="#000000">TripPassagesModule</text>
</g>
<!-- CountdownTimerModule&#45;&gt;TripPassagesModule -->
<g id="edge38" class="edge">
<title>CountdownTimerModule&#45;&gt;TripPassagesModule</title>
<path fill="none" stroke="#000000" d="M3463.5826,-180C3478.0421,-180 3488.6485,-180 3488.6485,-180 3488.6485,-180 3488.6485,-254 3488.6485,-254 3488.6485,-254 3711.9691,-254 3711.9691,-254"/>
<polygon fill="#000000" stroke="#000000" points="3711.9691,-257.5001 3721.9691,-254 3711.9691,-250.5001 3711.9691,-257.5001"/>
</g>
<!-- MainMapDirective -->
<g id="node15" class="node">
<title>MainMapDirective</title>
<polygon fill="#ffffb3" stroke="#000000" points="1684.7921,-198 1561.2079,-198 1561.2079,-162 1684.7921,-162 1684.7921,-198"/>
<text text-anchor="middle" x="1623" y="-175.8" font-family="Times,serif" font-size="14.00" fill="#000000">MainMapDirective</text>
</g>
<!-- MainMapDirective&#45;&gt;MainMapModule -->
<g id="edge13" class="edge">
<title>MainMapDirective&#45;&gt;MainMapModule</title>
<path fill="none" stroke="#000000" d="M1623,-161.8777C1623,-159.0271 1623,-157 1623,-157 1623,-157 1013.3103,-157 1013.3103,-157 1013.3103,-157 1013.3103,-132.2396 1013.3103,-132.2396"/>
<polygon fill="#000000" stroke="#000000" points="1016.8104,-132.2396 1013.3103,-122.2396 1009.8104,-132.2396 1016.8104,-132.2396"/>
</g>
<!-- MainToolbarComponent -->
<g id="node17" class="node">
<title>MainToolbarComponent</title>
<polygon fill="#ffffb3" stroke="#000000" points="2940.7007,-198 2785.2993,-198 2785.2993,-162 2940.7007,-162 2940.7007,-198"/>
<text text-anchor="middle" x="2863" y="-175.8" font-family="Times,serif" font-size="14.00" fill="#000000">MainToolbarComponent</text>
</g>
<!-- MainToolbarComponent&#45;&gt;MainToolbarModule -->
<g id="edge15" class="edge">
<title>MainToolbarComponent&#45;&gt;MainToolbarModule</title>
<path fill="none" stroke="#000000" d="M2863,-161.7604C2863,-146.4294 2863,-127 2863,-127 2863,-127 1167.3228,-127 1167.3228,-127 1167.3228,-127 1167.3228,-126.5122 1167.3228,-126.5122"/>
<polygon fill="#000000" stroke="#000000" points="1170.823,-132.1222 1167.3228,-122.1223 1163.823,-132.1224 1170.823,-132.1222"/>
</g>
<!-- RouteLoadingIndicatorComponent -->
<g id="node18" class="node">
<title>RouteLoadingIndicatorComponent</title>
<polygon fill="#ffffb3" stroke="#000000" points="2766.9636,-198 2555.0364,-198 2555.0364,-162 2766.9636,-162 2766.9636,-198"/>
<text text-anchor="middle" x="2661" y="-175.8" font-family="Times,serif" font-size="14.00" fill="#000000">RouteLoadingIndicatorComponent</text>
</g>
<!-- RouteLoadingIndicatorComponent&#45;&gt;MainToolbarModule -->
<g id="edge16" class="edge">
<title>RouteLoadingIndicatorComponent&#45;&gt;MainToolbarModule</title>
<path fill="none" stroke="#000000" d="M2661,-161.8533C2661,-148.2605 2661,-132 2661,-132 2661,-132 1150.6455,-132 1150.6455,-132 1150.6455,-132 1150.6455,-131.0207 1150.6455,-131.0207"/>
<polygon fill="#000000" stroke="#000000" points="1154.1456,-132.2069 1150.6455,-122.207 1147.1456,-132.207 1154.1456,-132.2069"/>
</g>
<!-- ToolbarSearchBoxComponent -->
<g id="node19" class="node">
<title>ToolbarSearchBoxComponent</title>
<polygon fill="#ffffb3" stroke="#000000" points="2536.5744,-198 2349.4256,-198 2349.4256,-162 2536.5744,-162 2536.5744,-198"/>
<text text-anchor="middle" x="2443" y="-175.8" font-family="Times,serif" font-size="14.00" fill="#000000">ToolbarSearchBoxComponent</text>
</g>
<!-- ToolbarSearchBoxComponent&#45;&gt;MainToolbarModule -->
<g id="edge17" class="edge">
<title>ToolbarSearchBoxComponent&#45;&gt;MainToolbarModule</title>
<path fill="none" stroke="#000000" d="M2443,-161.5146C2443,-149.8601 2443,-137 2443,-137 2443,-137 1133.9682,-137 1133.9682,-137 1133.9682,-137 1133.9682,-132.0449 1133.9682,-132.0449"/>
<polygon fill="#000000" stroke="#000000" points="1137.4683,-132.0448 1133.9682,-122.0449 1130.4683,-132.0449 1137.4683,-132.0448"/>
</g>
<!-- MapHeaderBoxComponent -->
<g id="node23" class="node">
<title>MapHeaderBoxComponent</title>
<polygon fill="#ffffb3" stroke="#000000" points="4252.2394,-122 4081.7606,-122 4081.7606,-86 4252.2394,-86 4252.2394,-122"/>
<text text-anchor="middle" x="4167" y="-99.8" font-family="Times,serif" font-size="14.00" fill="#000000">MapHeaderBoxComponent</text>
</g>
<!-- MapHeaderBoxModule -->
<g id="node24" class="node">
<title>MapHeaderBoxModule</title>
<polygon fill="#8dd3c7" stroke="#000000" points="4241.4566,-198 4238.4566,-202 4217.4566,-202 4214.4566,-198 4092.5434,-198 4092.5434,-162 4241.4566,-162 4241.4566,-198"/>
<text text-anchor="middle" x="4167" y="-175.8" font-family="Times,serif" font-size="14.00" fill="#000000">MapHeaderBoxModule</text>
</g>
<!-- MapHeaderBoxComponent&#45;&gt;MapHeaderBoxModule -->
<g id="edge21" class="edge">
<title>MapHeaderBoxComponent&#45;&gt;MapHeaderBoxModule</title>
<path fill="none" stroke="#000000" d="M4167,-122.0109C4167,-122.0109 4167,-151.855 4167,-151.855"/>
<polygon fill="#000000" stroke="#000000" points="4163.5001,-151.8549 4167,-161.855 4170.5001,-151.855 4163.5001,-151.8549"/>
</g>
<!-- MapHeaderBoxComponent  -->
<g id="node25" class="node">
<title>MapHeaderBoxComponent </title>
<polygon fill="#fb8072" stroke="#000000" points="4254.2394,-266 4079.7606,-266 4079.7606,-230 4254.2394,-230 4254.2394,-266"/>
<text text-anchor="middle" x="4167" y="-243.8" font-family="Times,serif" font-size="14.00" fill="#000000">MapHeaderBoxComponent </text>
</g>
<!-- MapHeaderBoxModule&#45;&gt;MapHeaderBoxComponent  -->
<g id="edge22" class="edge">
<title>MapHeaderBoxModule&#45;&gt;MapHeaderBoxComponent </title>
<path fill="none" stroke="#000000" stroke-dasharray="5,2" d="M4167,-198.2228C4167,-198.2228 4167,-219.7269 4167,-219.7269"/>
<polygon fill="#000000" stroke="#000000" points="4163.5001,-219.7269 4167,-229.7269 4170.5001,-219.727 4163.5001,-219.7269"/>
</g>
<!-- StopModule -->
<g id="node36" class="node">
<title>StopModule</title>
<polygon fill="#8dd3c7" stroke="#000000" points="4772.7233,-266 4769.7233,-270 4748.7233,-270 4745.7233,-266 4687.2767,-266 4687.2767,-230 4772.7233,-230 4772.7233,-266"/>
<text text-anchor="middle" x="4730" y="-243.8" font-family="Times,serif" font-size="14.00" fill="#000000">StopModule</text>
</g>
<!-- MapHeaderBoxModule&#45;&gt;StopModule -->
<g id="edge32" class="edge">
<title>MapHeaderBoxModule&#45;&gt;StopModule</title>
<path fill="none" stroke="#000000" d="M4241.5884,-180C4259.7046,-180 4273.9746,-180 4273.9746,-180 4273.9746,-180 4273.9746,-257 4273.9746,-257 4273.9746,-257 4677.0982,-257 4677.0982,-257"/>
<polygon fill="#000000" stroke="#000000" points="4677.0983,-260.5001 4687.0982,-257 4677.0982,-253.5001 4677.0983,-260.5001"/>
</g>
<!-- MapHeaderBoxModule&#45;&gt;TripPassagesModule -->
<g id="edge39" class="edge">
<title>MapHeaderBoxModule&#45;&gt;TripPassagesModule</title>
<path fill="none" stroke="#000000" d="M4092.5034,-180C4074.2003,-180 4059.7386,-180 4059.7386,-180 4059.7386,-180 4059.7386,-254 4059.7386,-254 4059.7386,-254 3865.9242,-254 3865.9242,-254"/>
<polygon fill="#000000" stroke="#000000" points="3865.9242,-250.5001 3855.9242,-254 3865.9241,-257.5001 3865.9242,-250.5001"/>
</g>
<!-- NotFoundComponent -->
<g id="node26" class="node">
<title>NotFoundComponent</title>
<polygon fill="#ffffb3" stroke="#000000" points="5663.1122,-122 5524.8878,-122 5524.8878,-86 5663.1122,-86 5663.1122,-122"/>
<text text-anchor="middle" x="5594" y="-99.8" font-family="Times,serif" font-size="14.00" fill="#000000">NotFoundComponent</text>
</g>
<!-- NotFoundModule -->
<g id="node27" class="node">
<title>NotFoundModule</title>
<polygon fill="#8dd3c7" stroke="#000000" points="5565.3301,-198 5562.3301,-202 5541.3301,-202 5538.3301,-198 5448.6699,-198 5448.6699,-162 5565.3301,-162 5565.3301,-198"/>
<text text-anchor="middle" x="5507" y="-175.8" font-family="Times,serif" font-size="14.00" fill="#000000">NotFoundModule</text>
</g>
<!-- NotFoundComponent&#45;&gt;NotFoundModule -->
<g id="edge23" class="edge">
<title>NotFoundComponent&#45;&gt;NotFoundModule</title>
<path fill="none" stroke="#000000" d="M5545.0544,-122.0109C5545.0544,-122.0109 5545.0544,-151.855 5545.0544,-151.855"/>
<polygon fill="#000000" stroke="#000000" points="5541.5544,-151.8549 5545.0544,-161.855 5548.5544,-151.855 5541.5544,-151.8549"/>
</g>
<!-- NotFoundRoutingModule -->
<g id="node28" class="node">
<title>NotFoundRoutingModule</title>
<polygon fill="#8dd3c7" stroke="#000000" points="5500.948,-122 5497.948,-126 5476.948,-126 5473.948,-122 5339.052,-122 5339.052,-86 5500.948,-86 5500.948,-122"/>
<text text-anchor="middle" x="5420" y="-99.8" font-family="Times,serif" font-size="14.00" fill="#000000">NotFoundRoutingModule</text>
</g>
<!-- NotFoundRoutingModule&#45;&gt;NotFoundModule -->
<g id="edge24" class="edge">
<title>NotFoundRoutingModule&#45;&gt;NotFoundModule</title>
<path fill="none" stroke="#000000" d="M5474.7795,-122.0109C5474.7795,-122.0109 5474.7795,-151.855 5474.7795,-151.855"/>
<polygon fill="#000000" stroke="#000000" points="5471.2795,-151.8549 5474.7795,-161.855 5478.2795,-151.855 5471.2795,-151.8549"/>
</g>
<!-- SidebarComponent -->
<g id="node29" class="node">
<title>SidebarComponent</title>
<polygon fill="#ffffb3" stroke="#000000" points="3257.0954,-198 3132.9046,-198 3132.9046,-162 3257.0954,-162 3257.0954,-198"/>
<text text-anchor="middle" x="3195" y="-175.8" font-family="Times,serif" font-size="14.00" fill="#000000">SidebarComponent</text>
</g>
<!-- SidebarComponent&#45;&gt;SidebarModule -->
<g id="edge25" class="edge">
<title>SidebarComponent&#45;&gt;SidebarModule</title>
<path fill="none" stroke="#000000" d="M3195,-161.8015C3195,-137.6437 3195,-98 3195,-98 3195,-98 1381.6136,-98 1381.6136,-98"/>
<polygon fill="#000000" stroke="#000000" points="1381.6136,-94.5001 1371.6136,-98 1381.6136,-101.5001 1381.6136,-94.5001"/>
</g>
<!-- DepartureListComponent -->
<g id="node31" class="node">
<title>DepartureListComponent</title>
<polygon fill="#ffffb3" stroke="#000000" points="4809.573,-198 4650.427,-198 4650.427,-162 4809.573,-162 4809.573,-198"/>
<text text-anchor="middle" x="4730" y="-175.8" font-family="Times,serif" font-size="14.00" fill="#000000">DepartureListComponent</text>
</g>
<!-- DepartureListComponent&#45;&gt;StopModule -->
<g id="edge27" class="edge">
<title>DepartureListComponent&#45;&gt;StopModule</title>
<path fill="none" stroke="#000000" d="M4730,-198.2228C4730,-198.2228 4730,-219.7269 4730,-219.7269"/>
<polygon fill="#000000" stroke="#000000" points="4726.5001,-219.7269 4730,-229.7269 4733.5001,-219.727 4726.5001,-219.7269"/>
</g>
<!-- DepartureListItemComponent -->
<g id="node32" class="node">
<title>DepartureListItemComponent</title>
<polygon fill="#ffffb3" stroke="#000000" points="4632.2296,-198 4447.7704,-198 4447.7704,-162 4632.2296,-162 4632.2296,-198"/>
<text text-anchor="middle" x="4540" y="-175.8" font-family="Times,serif" font-size="14.00" fill="#000000">DepartureListItemComponent</text>
</g>
<!-- DepartureListItemComponent&#45;&gt;StopModule -->
<g id="edge28" class="edge">
<title>DepartureListItemComponent&#45;&gt;StopModule</title>
<path fill="none" stroke="#000000" d="M4540,-198.0225C4540,-215.3734 4540,-239 4540,-239 4540,-239 4677.3603,-239 4677.3603,-239"/>
<polygon fill="#000000" stroke="#000000" points="4677.3603,-242.5001 4687.3603,-239 4677.3603,-235.5001 4677.3603,-242.5001"/>
</g>
<!-- RouteListComponent -->
<g id="node33" class="node">
<title>RouteListComponent</title>
<polygon fill="#ffffb3" stroke="#000000" points="5299.0533,-198 5162.9467,-198 5162.9467,-162 5299.0533,-162 5299.0533,-198"/>
<text text-anchor="middle" x="5231" y="-175.8" font-family="Times,serif" font-size="14.00" fill="#000000">RouteListComponent</text>
</g>
<!-- RouteListComponent&#45;&gt;StopModule -->
<g id="edge29" class="edge">
<title>RouteListComponent&#45;&gt;StopModule</title>
<path fill="none" stroke="#000000" d="M5231,-198.2479C5231,-221.0179 5231,-257 5231,-257 5231,-257 4782.715,-257 4782.715,-257"/>
<polygon fill="#000000" stroke="#000000" points="4782.715,-253.5001 4772.715,-257 4782.7149,-260.5001 4782.715,-253.5001"/>
</g>
<!-- StopInfoComponent -->
<g id="node34" class="node">
<title>StopInfoComponent</title>
<polygon fill="#ffffb3" stroke="#000000" points="5145.3272,-198 5014.6728,-198 5014.6728,-162 5145.3272,-162 5145.3272,-198"/>
<text text-anchor="middle" x="5080" y="-175.8" font-family="Times,serif" font-size="14.00" fill="#000000">StopInfoComponent</text>
</g>
<!-- StopInfoComponent&#45;&gt;StopModule -->
<g id="edge30" class="edge">
<title>StopInfoComponent&#45;&gt;StopModule</title>
<path fill="none" stroke="#000000" d="M5080,-198.2228C5080,-218.3652 5080,-248 5080,-248 5080,-248 4782.9169,-248 4782.9169,-248"/>
<polygon fill="#000000" stroke="#000000" points="4782.9169,-244.5001 4772.9169,-248 4782.9168,-251.5001 4782.9169,-244.5001"/>
</g>
<!-- StopLocationMapDirective -->
<g id="node35" class="node">
<title>StopLocationMapDirective</title>
<polygon fill="#ffffb3" stroke="#000000" points="4996.6783,-198 4827.3217,-198 4827.3217,-162 4996.6783,-162 4996.6783,-198"/>
<text text-anchor="middle" x="4912" y="-175.8" font-family="Times,serif" font-size="14.00" fill="#000000">StopLocationMapDirective</text>
</g>
<!-- StopLocationMapDirective&#45;&gt;StopModule -->
<g id="edge31" class="edge">
<title>StopLocationMapDirective&#45;&gt;StopModule</title>
<path fill="none" stroke="#000000" d="M4912,-198.0225C4912,-215.3734 4912,-239 4912,-239 4912,-239 4782.6709,-239 4782.6709,-239"/>
<polygon fill="#000000" stroke="#000000" points="4782.6709,-235.5001 4772.6709,-239 4782.6709,-242.5001 4782.6709,-235.5001"/>
</g>
<!-- StopRoutingModule -->
<g id="node37" class="node">
<title>StopRoutingModule</title>
<polygon fill="#8dd3c7" stroke="#000000" points="4424.3412,-198 4421.3412,-202 4400.3412,-202 4397.3412,-198 4293.6588,-198 4293.6588,-162 4424.3412,-162 4424.3412,-198"/>
<text text-anchor="middle" x="4359" y="-175.8" font-family="Times,serif" font-size="14.00" fill="#000000">StopRoutingModule</text>
</g>
<!-- StopRoutingModule&#45;&gt;StopModule -->
<g id="edge33" class="edge">
<title>StopRoutingModule&#45;&gt;StopModule</title>
<path fill="none" stroke="#000000" d="M4359,-198.2228C4359,-218.3652 4359,-248 4359,-248 4359,-248 4677.0792,-248 4677.0792,-248"/>
<polygon fill="#000000" stroke="#000000" points="4677.0792,-251.5001 4687.0792,-248 4677.0791,-244.5001 4677.0792,-251.5001"/>
</g>
<!-- StopsRoutingModule -->
<g id="node38" class="node">
<title>StopsRoutingModule</title>
<polygon fill="#8dd3c7" stroke="#000000" points="5838.7856,-198 5835.7856,-202 5814.7856,-202 5811.7856,-198 5703.2144,-198 5703.2144,-162 5838.7856,-162 5838.7856,-198"/>
<text text-anchor="middle" x="5771" y="-175.8" font-family="Times,serif" font-size="14.00" fill="#000000">StopsRoutingModule</text>
</g>
<!-- StopsModule -->
<g id="node39" class="node">
<title>StopsModule</title>
<polygon fill="#8dd3c7" stroke="#000000" points="5816.1682,-266 5813.1682,-270 5792.1682,-270 5789.1682,-266 5725.8318,-266 5725.8318,-230 5816.1682,-230 5816.1682,-266"/>
<text text-anchor="middle" x="5771" y="-243.8" font-family="Times,serif" font-size="14.00" fill="#000000">StopsModule</text>
</g>
<!-- StopsRoutingModule&#45;&gt;StopsModule -->
<g id="edge34" class="edge">
<title>StopsRoutingModule&#45;&gt;StopsModule</title>
<path fill="none" stroke="#000000" d="M5771,-198.2228C5771,-198.2228 5771,-219.7269 5771,-219.7269"/>
<polygon fill="#000000" stroke="#000000" points="5767.5001,-219.7269 5771,-229.7269 5774.5001,-219.727 5767.5001,-219.7269"/>
</g>
<!-- StopsInfoComponent -->
<g id="node40" class="node">
<title>StopsInfoComponent</title>
<polygon fill="#ffffb3" stroke="#000000" points="5838.7716,-122 5703.2284,-122 5703.2284,-86 5838.7716,-86 5838.7716,-122"/>
<text text-anchor="middle" x="5771" y="-99.8" font-family="Times,serif" font-size="14.00" fill="#000000">StopsInfoComponent</text>
</g>
<!-- StopsInfoComponent&#45;&gt;StopsRoutingModule -->
<g id="edge35" class="edge">
<title>StopsInfoComponent&#45;&gt;StopsRoutingModule</title>
<path fill="none" stroke="#000000" d="M5771,-122.0109C5771,-122.0109 5771,-151.855 5771,-151.855"/>
<polygon fill="#000000" stroke="#000000" points="5767.5001,-151.8549 5771,-161.855 5774.5001,-151.855 5767.5001,-151.8549"/>
</g>
<!-- FollowBusMapDirective -->
<g id="node41" class="node">
<title>FollowBusMapDirective</title>
<polygon fill="#ffffb3" stroke="#000000" points="4039.6937,-198 3884.3063,-198 3884.3063,-162 4039.6937,-162 4039.6937,-198"/>
<text text-anchor="middle" x="3962" y="-175.8" font-family="Times,serif" font-size="14.00" fill="#000000">FollowBusMapDirective</text>
</g>
<!-- FollowBusMapDirective&#45;&gt;TripPassagesModule -->
<g id="edge36" class="edge">
<title>FollowBusMapDirective&#45;&gt;TripPassagesModule</title>
<path fill="none" stroke="#000000" d="M3962,-198.2667C3962,-216.5552 3962,-242 3962,-242 3962,-242 3865.8863,-242 3865.8863,-242"/>
<polygon fill="#000000" stroke="#000000" points="3865.8864,-238.5001 3855.8863,-242 3865.8863,-245.5001 3865.8864,-238.5001"/>
</g>
<!-- TripPassagesComponent -->
<g id="node42" class="node">
<title>TripPassagesComponent</title>
<polygon fill="#ffffb3" stroke="#000000" points="3866.6965,-198 3711.3035,-198 3711.3035,-162 3866.6965,-162 3866.6965,-198"/>
<text text-anchor="middle" x="3789" y="-175.8" font-family="Times,serif" font-size="14.00" fill="#000000">TripPassagesComponent</text>
</g>
<!-- TripPassagesComponent&#45;&gt;TripPassagesModule -->
<g id="edge37" class="edge">
<title>TripPassagesComponent&#45;&gt;TripPassagesModule</title>
<path fill="none" stroke="#000000" d="M3789,-198.2228C3789,-198.2228 3789,-219.7269 3789,-219.7269"/>
<polygon fill="#000000" stroke="#000000" points="3785.5001,-219.7269 3789,-229.7269 3792.5001,-219.727 3785.5001,-219.7269"/>
</g>
<!-- TripPassagesRoutingModule -->
<g id="node44" class="node">
<title>TripPassagesRoutingModule</title>
<polygon fill="#8dd3c7" stroke="#000000" points="3687.0322,-198 3684.0322,-202 3663.0322,-202 3660.0322,-198 3508.9678,-198 3508.9678,-162 3687.0322,-162 3687.0322,-198"/>
<text text-anchor="middle" x="3598" y="-175.8" font-family="Times,serif" font-size="14.00" fill="#000000">TripPassagesRoutingModule</text>
</g>
<!-- TripPassagesRoutingModule&#45;&gt;TripPassagesModule -->
<g id="edge40" class="edge">
<title>TripPassagesRoutingModule&#45;&gt;TripPassagesModule</title>
<path fill="none" stroke="#000000" d="M3598,-198.2667C3598,-216.5552 3598,-242 3598,-242 3598,-242 3712.1975,-242 3712.1975,-242"/>
<polygon fill="#000000" stroke="#000000" points="3712.1975,-245.5001 3722.1975,-242 3712.1974,-238.5001 3712.1975,-245.5001"/>
</g>
</g>
</svg>
