<?xml version="1.0" encoding="UTF-8" standalone="no"?>
<!DOCTYPE svg PUBLIC "-//W3C//DTD SVG 1.1//EN"
 "http://www.w3.org/Graphics/SVG/1.1/DTD/svg11.dtd">
<!-- Generated by graphviz version 2.40.1 (20161225.0304)
 -->
<!-- Title: dependencies Pages: 1 -->
<svg width="6450pt" height="290pt"
 viewBox="0.00 0.00 6450.00 290.00" xmlns="http://www.w3.org/2000/svg" xmlns:xlink="http://www.w3.org/1999/xlink">
<g id="graph0" class="graph" transform="scale(1 1) rotate(0) translate(4 286)">
<title>dependencies</title>
<polygon fill="#ffffff" stroke="transparent" points="-4,4 -4,-286 6446,-286 6446,4 -4,4"/>
<text text-anchor="start" x="3200.0091" y="-42.4" font-family="sans-serif" font-weight="bold" font-size="14.00" fill="#000000">Legend</text>
<polygon fill="#ffffb3" stroke="transparent" points="2987,-10 2987,-30 3007,-30 3007,-10 2987,-10"/>
<text text-anchor="start" x="3010.629" y="-15.4" font-family="sans-serif" font-size="14.00" fill="#000000"> &#160;Declarations</text>
<polygon fill="#8dd3c7" stroke="transparent" points="3100,-10 3100,-30 3120,-30 3120,-10 3100,-10"/>
<text text-anchor="start" x="3123.7251" y="-15.4" font-family="sans-serif" font-size="14.00" fill="#000000"> &#160;Module</text>
<polygon fill="#80b1d3" stroke="transparent" points="3186,-10 3186,-30 3206,-30 3206,-10 3186,-10"/>
<text text-anchor="start" x="3209.7812" y="-15.4" font-family="sans-serif" font-size="14.00" fill="#000000"> &#160;Bootstrap</text>
<polygon fill="#fdb462" stroke="transparent" points="3283,-10 3283,-30 3303,-30 3303,-10 3283,-10"/>
<text text-anchor="start" x="3306.6732" y="-15.4" font-family="sans-serif" font-size="14.00" fill="#000000"> &#160;Providers</text>
<polygon fill="#fb8072" stroke="transparent" points="3379,-10 3379,-30 3399,-30 3399,-10 3379,-10"/>
<text text-anchor="start" x="3402.7258" y="-15.4" font-family="sans-serif" font-size="14.00" fill="#000000"> &#160;Exports</text>
<g id="clust1" class="cluster">
<title>cluster_AppModule</title>
<polygon fill="none" stroke="#000000" stroke-dasharray="1,5" points="8,-70 8,-274 1611,-274 1611,-70 8,-70"/>
</g>
<g id="clust2" class="cluster">
<title>cluster_AppModule_declarations</title>
<polygon fill="none" stroke="#000000" points="784,-78 784,-130 1046,-130 1046,-78 784,-78"/>
</g>
<g id="clust5" class="cluster">
<title>cluster_AppModule_imports</title>
<polygon fill="none" stroke="#000000" points="1054,-78 1054,-130 1603,-130 1603,-78 1054,-78"/>
</g>
<g id="clust7" class="cluster">
<title>cluster_AppModule_bootstrap</title>
<polygon fill="none" stroke="#000000" points="857,-214 857,-266 981,-266 981,-214 857,-214"/>
</g>
<g id="clust8" class="cluster">
<title>cluster_AppModule_providers</title>
<polygon fill="none" stroke="#000000" points="16,-78 16,-130 776,-130 776,-78 16,-78"/>
</g>
<g id="clust15" class="cluster">
<title>cluster_CountdownTimerModule</title>
<polygon fill="none" stroke="#000000" stroke-dasharray="1,5" points="3505,-70 3505,-274 3709,-274 3709,-70 3505,-70"/>
</g>
<g id="clust16" class="cluster">
<title>cluster_CountdownTimerModule_declarations</title>
<polygon fill="none" stroke="#000000" points="3516,-78 3516,-130 3700,-130 3700,-78 3516,-78"/>
</g>
<g id="clust19" class="cluster">
<title>cluster_CountdownTimerModule_exports</title>
<polygon fill="none" stroke="#000000" points="3513,-214 3513,-266 3701,-266 3701,-214 3513,-214"/>
</g>
<g id="clust22" class="cluster">
<title>cluster_MainMapModule</title>
<polygon fill="none" stroke="#000000" stroke-dasharray="1,5" points="1619,-138 1619,-206 1925,-206 1925,-138 1619,-138"/>
</g>
<g id="clust23" class="cluster">
<title>cluster_MainMapModule_declarations</title>
<polygon fill="none" stroke="#000000" points="1777,-146 1777,-198 1917,-198 1917,-146 1777,-146"/>
</g>
<g id="clust26" class="cluster">
<title>cluster_MainMapModule_exports</title>
<polygon fill="none" stroke="#000000" points="1627,-146 1627,-198 1769,-198 1769,-146 1627,-146"/>
</g>
<g id="clust29" class="cluster">
<title>cluster_MainToolbarModule</title>
<polygon fill="none" stroke="#000000" stroke-dasharray="1,5" points="1933,-138 1933,-206 3181,-206 3181,-138 1933,-138"/>
</g>
<g id="clust30" class="cluster">
<title>cluster_MainToolbarModule_declarations</title>
<polygon fill="none" stroke="#000000" points="2566,-146 2566,-198 3173,-198 3173,-146 2566,-146"/>
</g>
<g id="clust35" class="cluster">
<title>cluster_MainToolbarModule_exports</title>
<polygon fill="none" stroke="#000000" points="1941,-146 1941,-198 2558,-198 2558,-146 1941,-146"/>
</g>
<g id="clust38" class="cluster">
<title>cluster_MapHeaderBoxModule</title>
<polygon fill="none" stroke="#000000" stroke-dasharray="1,5" points="4288,-70 4288,-274 4494,-274 4494,-70 4288,-70"/>
</g>
<g id="clust39" class="cluster">
<title>cluster_MapHeaderBoxModule_declarations</title>
<polygon fill="none" stroke="#000000" points="4298,-78 4298,-130 4484,-130 4484,-78 4298,-78"/>
</g>
<g id="clust42" class="cluster">
<title>cluster_MapHeaderBoxModule_exports</title>
<polygon fill="none" stroke="#000000" points="4296,-214 4296,-266 4486,-266 4486,-214 4296,-214"/>
</g>
<g id="clust45" class="cluster">
<title>cluster_NotFoundModule</title>
<polygon fill="none" stroke="#000000" stroke-dasharray="1,5" points="5548,-70 5548,-198 5904,-198 5904,-70 5548,-70"/>
</g>
<g id="clust46" class="cluster">
<title>cluster_NotFoundModule_declarations</title>
<polygon fill="none" stroke="#000000" points="5742,-78 5742,-130 5896,-130 5896,-78 5742,-78"/>
</g>
<g id="clust48" class="cluster">
<title>cluster_NotFoundModule_imports</title>
<polygon fill="none" stroke="#000000" points="5556,-78 5556,-130 5734,-130 5734,-78 5556,-78"/>
</g>
<g id="clust58" class="cluster">
<title>cluster_RetryDialogModule</title>
<polygon fill="none" stroke="#000000" stroke-dasharray="1,5" points="5912,-70 5912,-274 6098,-274 6098,-70 5912,-70"/>
</g>
<g id="clust59" class="cluster">
<title>cluster_RetryDialogModule_declarations</title>
<polygon fill="none" stroke="#000000" points="5923,-78 5923,-130 6089,-130 6089,-78 5923,-78"/>
</g>
<g id="clust62" class="cluster">
<title>cluster_RetryDialogModule_exports</title>
<polygon fill="none" stroke="#000000" points="5920,-214 5920,-266 6090,-266 6090,-214 5920,-214"/>
</g>
<g id="clust65" class="cluster">
<title>cluster_SidebarModule</title>
<polygon fill="none" stroke="#000000" stroke-dasharray="1,5" points="3189,-138 3189,-206 3497,-206 3497,-138 3189,-138"/>
</g>
<g id="clust66" class="cluster">
<title>cluster_SidebarModule_declarations</title>
<polygon fill="none" stroke="#000000" points="3349,-146 3349,-198 3489,-198 3489,-146 3349,-146"/>
</g>
<g id="clust69" class="cluster">
<title>cluster_SidebarModule_exports</title>
<polygon fill="none" stroke="#000000" points="3197,-146 3197,-198 3341,-198 3341,-146 3197,-146"/>
</g>
<g id="clust72" class="cluster">
<title>cluster_StopModule</title>
<polygon fill="none" stroke="#000000" stroke-dasharray="1,5" points="4502,-138 4502,-266 5540,-266 5540,-138 4502,-138"/>
</g>
<g id="clust73" class="cluster">
<title>cluster_StopModule_declarations</title>
<polygon fill="none" stroke="#000000" points="4664,-146 4664,-198 5532,-198 5532,-146 4664,-146"/>
</g>
<g id="clust79" class="cluster">
<title>cluster_StopModule_imports</title>
<polygon fill="none" stroke="#000000" points="4510,-146 4510,-198 4656,-198 4656,-146 4510,-146"/>
</g>
<g id="clust89" class="cluster">
<title>cluster_StopsModule</title>
<polygon fill="none" stroke="#000000" stroke-dasharray="1,5" points="6106,-138 6106,-266 6434,-266 6434,-138 6106,-138"/>
</g>
<g id="clust90" class="cluster">
<title>cluster_StopsModule_declarations</title>
<polygon fill="none" stroke="#000000" points="6274,-146 6274,-198 6426,-198 6426,-146 6274,-146"/>
</g>
<g id="clust92" class="cluster">
<title>cluster_StopsModule_imports</title>
<polygon fill="none" stroke="#000000" points="6114,-146 6114,-198 6266,-198 6266,-146 6114,-146"/>
</g>
<g id="clust102" class="cluster">
<title>cluster_TripPassagesModule</title>
<polygon fill="none" stroke="#000000" stroke-dasharray="1,5" points="3717,-138 3717,-266 4280,-266 4280,-138 3717,-138"/>
</g>
<g id="clust103" class="cluster">
<title>cluster_TripPassagesModule_declarations</title>
<polygon fill="none" stroke="#000000" points="3927,-146 3927,-198 4272,-198 4272,-146 3927,-146"/>
</g>
<g id="clust106" class="cluster">
<title>cluster_TripPassagesModule_imports</title>
<polygon fill="none" stroke="#000000" points="3725,-146 3725,-198 3919,-198 3919,-146 3725,-146"/>
</g>
<!-- AppComponent -->
<g id="node1" class="node">
<title>AppComponent</title>
<polygon fill="#ffffb3" stroke="#000000" points="1037.9399,-122 932.0601,-122 932.0601,-86 1037.9399,-86 1037.9399,-122"/>
<text text-anchor="middle" x="985" y="-99.8" font-family="Times,serif" font-size="14.00" fill="#000000">AppComponent</text>
</g>
<!-- AppModule -->
<g id="node3" class="node">
<title>AppModule</title>
<polygon fill="#8dd3c7" stroke="#000000" points="960.6571,-190 957.6571,-194 936.6571,-194 933.6571,-190 877.3429,-190 877.3429,-154 960.6571,-154 960.6571,-190"/>
<text text-anchor="middle" x="919" y="-167.8" font-family="Times,serif" font-size="14.00" fill="#000000">AppModule</text>
</g>
<!-- AppComponent&#45;&gt;AppModule -->
<g id="edge1" class="edge">
<title>AppComponent&#45;&gt;AppModule</title>
<path fill="none" stroke="#000000" d="M946.5544,-122.2228C946.5544,-122.2228 946.5544,-143.7269 946.5544,-143.7269"/>
<polygon fill="#000000" stroke="#000000" points="943.0544,-143.7269 946.5544,-153.7269 950.0544,-143.727 943.0544,-143.7269"/>
</g>
<!-- DrawableDirective -->
<g id="node2" class="node">
<title>DrawableDirective</title>
<polygon fill="#ffffb3" stroke="#000000" points="914.492,-122 791.508,-122 791.508,-86 914.492,-86 914.492,-122"/>
<text text-anchor="middle" x="853" y="-99.8" font-family="Times,serif" font-size="14.00" fill="#000000">DrawableDirective</text>
</g>
<!-- DrawableDirective&#45;&gt;AppModule -->
<g id="edge2" class="edge">
<title>DrawableDirective&#45;&gt;AppModule</title>
<path fill="none" stroke="#000000" d="M895.7087,-122.2228C895.7087,-122.2228 895.7087,-143.7269 895.7087,-143.7269"/>
<polygon fill="#000000" stroke="#000000" points="892.2087,-143.7269 895.7087,-153.7269 899.2087,-143.727 892.2087,-143.7269"/>
</g>
<!-- AppComponent  -->
<g id="node8" class="node">
<title>AppComponent </title>
<polygon fill="#80b1d3" stroke="#000000" points="973.439,-258 864.561,-258 864.561,-222 973.439,-222 973.439,-258"/>
<text text-anchor="middle" x="919" y="-235.8" font-family="Times,serif" font-size="14.00" fill="#000000">AppComponent </text>
</g>
<!-- AppModule&#45;&gt;AppComponent  -->
<g id="edge7" class="edge">
<title>AppModule&#45;&gt;AppComponent </title>
<path fill="none" stroke="#000000" stroke-dasharray="1,5" d="M919,-190.2228C919,-190.2228 919,-211.7269 919,-211.7269"/>
<polygon fill="#000000" stroke="#000000" points="915.5001,-211.7269 919,-221.7269 922.5001,-211.727 915.5001,-211.7269"/>
</g>
<!-- AppRoutingModule -->
<g id="node4" class="node">
<title>AppRoutingModule</title>
<polygon fill="#8dd3c7" stroke="#000000" points="1190.2744,-122 1187.2744,-126 1166.2744,-126 1163.2744,-122 1061.7256,-122 1061.7256,-86 1190.2744,-86 1190.2744,-122"/>
<text text-anchor="middle" x="1126" y="-99.8" font-family="Times,serif" font-size="14.00" fill="#000000">AppRoutingModule</text>
</g>
<!-- AppRoutingModule&#45;&gt;AppModule -->
<g id="edge3" class="edge">
<title>AppRoutingModule&#45;&gt;AppModule</title>
<path fill="none" stroke="#000000" d="M1126,-122.2667C1126,-140.5552 1126,-166 1126,-166 1126,-166 970.8895,-166 970.8895,-166"/>
<polygon fill="#000000" stroke="#000000" points="970.8896,-162.5001 960.8895,-166 970.8895,-169.5001 970.8896,-162.5001"/>
</g>
<!-- MainMapModule -->
<g id="node5" class="node">
<title>MainMapModule</title>
<polygon fill="#8dd3c7" stroke="#000000" points="1323.2591,-122 1320.2591,-126 1299.2591,-126 1296.2591,-122 1208.7409,-122 1208.7409,-86 1323.2591,-86 1323.2591,-122"/>
<text text-anchor="middle" x="1266" y="-99.8" font-family="Times,serif" font-size="14.00" fill="#000000">MainMapModule</text>
</g>
<!-- MainMapModule&#45;&gt;AppModule -->
<g id="edge4" class="edge">
<title>MainMapModule&#45;&gt;AppModule</title>
<path fill="none" stroke="#000000" d="M1266,-122.2228C1266,-142.3652 1266,-172 1266,-172 1266,-172 970.8563,-172 970.8563,-172"/>
<polygon fill="#000000" stroke="#000000" points="970.8563,-168.5001 960.8563,-172 970.8563,-175.5001 970.8563,-168.5001"/>
</g>
<!-- MainMapDirective  -->
<g id="node17" class="node">
<title>MainMapDirective </title>
<polygon fill="#fb8072" stroke="#000000" points="1761.292,-190 1634.708,-190 1634.708,-154 1761.292,-154 1761.292,-190"/>
<text text-anchor="middle" x="1698" y="-167.8" font-family="Times,serif" font-size="14.00" fill="#000000">MainMapDirective </text>
</g>
<!-- MainMapModule&#45;&gt;MainMapDirective  -->
<g id="edge15" class="edge">
<title>MainMapModule&#45;&gt;MainMapDirective </title>
<path fill="none" stroke="#000000" stroke-dasharray="5,2" d="M1294.6897,-122.027C1294.6897,-138.3976 1294.6897,-160 1294.6897,-160 1294.6897,-160 1624.5391,-160 1624.5391,-160"/>
<polygon fill="#000000" stroke="#000000" points="1624.5391,-163.5001 1634.5391,-160 1624.5391,-156.5001 1624.5391,-163.5001"/>
</g>
<!-- MainToolbarModule -->
<g id="node6" class="node">
<title>MainToolbarModule</title>
<polygon fill="#8dd3c7" stroke="#000000" points="1474.9187,-122 1471.9187,-126 1450.9187,-126 1447.9187,-122 1341.0813,-122 1341.0813,-86 1474.9187,-86 1474.9187,-122"/>
<text text-anchor="middle" x="1408" y="-99.8" font-family="Times,serif" font-size="14.00" fill="#000000">MainToolbarModule</text>
</g>
<!-- MainToolbarModule&#45;&gt;AppModule -->
<g id="edge5" class="edge">
<title>MainToolbarModule&#45;&gt;AppModule</title>
<path fill="none" stroke="#000000" d="M1458.0318,-122.2921C1458.0318,-144.2057 1458.0318,-178 1458.0318,-178 1458.0318,-178 970.8484,-178 970.8484,-178"/>
<polygon fill="#000000" stroke="#000000" points="970.8484,-174.5001 960.8484,-178 970.8483,-181.5001 970.8484,-174.5001"/>
</g>
<!-- MainToolbarComponent  -->
<g id="node21" class="node">
<title>MainToolbarComponent </title>
<polygon fill="#fb8072" stroke="#000000" points="2341.2009,-190 2182.7991,-190 2182.7991,-154 2341.2009,-154 2341.2009,-190"/>
<text text-anchor="middle" x="2262" y="-167.8" font-family="Times,serif" font-size="14.00" fill="#000000">MainToolbarComponent </text>
</g>
<!-- MainToolbarModule&#45;&gt;MainToolbarComponent  -->
<g id="edge19" class="edge">
<title>MainToolbarModule&#45;&gt;MainToolbarComponent </title>
<path fill="none" stroke="#000000" stroke-dasharray="5,2" d="M1424.6773,-122.1097C1424.6773,-131.897 1424.6773,-142 1424.6773,-142 1424.6773,-142 2262,-142 2262,-142 2262,-142 2262,-143.8568 2262,-143.8568"/>
<polygon fill="#000000" stroke="#000000" points="2258.5001,-143.8568 2262,-153.8568 2265.5001,-143.8568 2258.5001,-143.8568"/>
</g>
<!-- RouteLoadingIndicatorComponent  -->
<g id="node22" class="node">
<title>RouteLoadingIndicatorComponent </title>
<polygon fill="#fb8072" stroke="#000000" points="2164.9641,-190 1949.0359,-190 1949.0359,-154 2164.9641,-154 2164.9641,-190"/>
<text text-anchor="middle" x="2057" y="-167.8" font-family="Times,serif" font-size="14.00" fill="#000000">RouteLoadingIndicatorComponent </text>
</g>
<!-- MainToolbarModule&#45;&gt;RouteLoadingIndicatorComponent  -->
<g id="edge20" class="edge">
<title>MainToolbarModule&#45;&gt;RouteLoadingIndicatorComponent </title>
<path fill="none" stroke="#000000" stroke-dasharray="5,2" d="M1408,-122.0555C1408,-133.439 1408,-146 1408,-146 1408,-146 2057,-146 2057,-146 2057,-146 2057,-146.7942 2057,-146.7942"/>
<polygon fill="#000000" stroke="#000000" points="2053.5001,-143.9421 2057,-153.9421 2060.5001,-143.9422 2053.5001,-143.9421"/>
</g>
<!-- ToolbarSearchBoxComponent  -->
<g id="node23" class="node">
<title>ToolbarSearchBoxComponent </title>
<polygon fill="#fb8072" stroke="#000000" points="2550.0749,-190 2359.9251,-190 2359.9251,-154 2550.0749,-154 2550.0749,-190"/>
<text text-anchor="middle" x="2455" y="-167.8" font-family="Times,serif" font-size="14.00" fill="#000000">ToolbarSearchBoxComponent </text>
</g>
<!-- MainToolbarModule&#45;&gt;ToolbarSearchBoxComponent  -->
<g id="edge21" class="edge">
<title>MainToolbarModule&#45;&gt;ToolbarSearchBoxComponent </title>
<path fill="none" stroke="#000000" stroke-dasharray="5,2" d="M1441.3545,-122.1944C1441.3545,-130.2782 1441.3545,-138 1441.3545,-138 1441.3545,-138 2455,-138 2455,-138 2455,-138 2455,-143.8056 2455,-143.8056"/>
<polygon fill="#000000" stroke="#000000" points="2451.5001,-143.8055 2455,-153.8056 2458.5001,-143.8056 2451.5001,-143.8055"/>
</g>
<!-- SidebarModule -->
<g id="node7" class="node">
<title>SidebarModule</title>
<polygon fill="#8dd3c7" stroke="#000000" points="1595.3133,-122 1592.3133,-126 1571.3133,-126 1568.3133,-122 1492.6867,-122 1492.6867,-86 1595.3133,-86 1595.3133,-122"/>
<text text-anchor="middle" x="1544" y="-99.8" font-family="Times,serif" font-size="14.00" fill="#000000">SidebarModule</text>
</g>
<!-- SidebarModule&#45;&gt;AppModule -->
<g id="edge6" class="edge">
<title>SidebarModule&#45;&gt;AppModule</title>
<path fill="none" stroke="#000000" d="M1544,-122.1532C1544,-145.7566 1544,-184 1544,-184 1544,-184 970.9785,-184 970.9785,-184"/>
<polygon fill="#000000" stroke="#000000" points="970.9785,-180.5001 960.9785,-184 970.9785,-187.5001 970.9785,-180.5001"/>
</g>
<!-- SidebarComponent  -->
<g id="node34" class="node">
<title>SidebarComponent </title>
<polygon fill="#fb8072" stroke="#000000" points="3332.596,-190 3205.404,-190 3205.404,-154 3332.596,-154 3332.596,-190"/>
<text text-anchor="middle" x="3269" y="-167.8" font-family="Times,serif" font-size="14.00" fill="#000000">SidebarComponent </text>
</g>
<!-- SidebarModule&#45;&gt;SidebarComponent  -->
<g id="edge29" class="edge">
<title>SidebarModule&#45;&gt;SidebarComponent </title>
<path fill="none" stroke="#000000" stroke-dasharray="5,2" d="M1595.1578,-110C1881.1341,-110 3269,-110 3269,-110 3269,-110 3269,-143.7333 3269,-143.7333"/>
<polygon fill="#000000" stroke="#000000" points="3265.5001,-143.7333 3269,-153.7333 3272.5001,-143.7333 3265.5001,-143.7333"/>
</g>
<!-- AppNotificationService -->
<g id="node9" class="node">
<title>AppNotificationService</title>
<ellipse fill="#fdb462" stroke="#000000" cx="287" cy="-104" rx="103.0675" ry="18"/>
<text text-anchor="middle" x="287" y="-99.8" font-family="Times,serif" font-size="14.00" fill="#000000">AppNotificationService</text>
</g>
<!-- AppNotificationService&#45;&gt;AppModule -->
<g id="edge8" class="edge">
<title>AppNotificationService&#45;&gt;AppModule</title>
<path fill="none" stroke="#000000" d="M287,-122.1686C287,-143.498 287,-176 287,-176 287,-176 867.0433,-176 867.0433,-176"/>
<polygon fill="#000000" stroke="#000000" points="867.0433,-179.5001 877.0433,-176 867.0432,-172.5001 867.0433,-179.5001"/>
</g>
<!-- SettingsService -->
<g id="node10" class="node">
<title>SettingsService</title>
<ellipse fill="#fdb462" stroke="#000000" cx="95" cy="-104" rx="71.221" ry="18"/>
<text text-anchor="middle" x="95" y="-99.8" font-family="Times,serif" font-size="14.00" fill="#000000">SettingsService</text>
</g>
<!-- SettingsService&#45;&gt;AppModule -->
<g id="edge9" class="edge">
<title>SettingsService&#45;&gt;AppModule</title>
<path fill="none" stroke="#000000" d="M95,-122.3228C95,-145.6602 95,-183 95,-183 95,-183 867.2894,-183 867.2894,-183"/>
<polygon fill="#000000" stroke="#000000" points="867.2894,-186.5001 877.2894,-183 867.2893,-179.5001 867.2894,-186.5001"/>
</g>
<!-- StopPointService -->
<g id="node11" class="node">
<title>StopPointService</title>
<ellipse fill="#fdb462" stroke="#000000" cx="690" cy="-104" rx="78.1868" ry="18"/>
<text text-anchor="middle" x="690" y="-99.8" font-family="Times,serif" font-size="14.00" fill="#000000">StopPointService</text>
</g>
<!-- StopPointService&#45;&gt;AppModule -->
<g id="edge10" class="edge">
<title>StopPointService&#45;&gt;AppModule</title>
<path fill="none" stroke="#000000" d="M690,-122.0336C690,-139.0597 690,-162 690,-162 690,-162 867.2641,-162 867.2641,-162"/>
<polygon fill="#000000" stroke="#000000" points="867.2642,-165.5001 877.2641,-162 867.2641,-158.5001 867.2642,-165.5001"/>
</g>
<!-- UserLocationService -->
<g id="node12" class="node">
<title>UserLocationService</title>
<ellipse fill="#fdb462" stroke="#000000" cx="501" cy="-104" rx="92.5919" ry="18"/>
<text text-anchor="middle" x="501" y="-99.8" font-family="Times,serif" font-size="14.00" fill="#000000">UserLocationService</text>
</g>
<!-- UserLocationService&#45;&gt;AppModule -->
<g id="edge11" class="edge">
<title>UserLocationService&#45;&gt;AppModule</title>
<path fill="none" stroke="#000000" d="M501,-122.1061C501,-141.3391 501,-169 501,-169 501,-169 867.0067,-169 867.0067,-169"/>
<polygon fill="#000000" stroke="#000000" points="867.0068,-172.5001 877.0067,-169 867.0067,-165.5001 867.0068,-172.5001"/>
</g>
<!-- CountdownTimerDirective -->
<g id="node13" class="node">
<title>CountdownTimerDirective</title>
<polygon fill="#ffffb3" stroke="#000000" points="3691.626,-122 3524.374,-122 3524.374,-86 3691.626,-86 3691.626,-122"/>
<text text-anchor="middle" x="3608" y="-99.8" font-family="Times,serif" font-size="14.00" fill="#000000">CountdownTimerDirective</text>
</g>
<!-- CountdownTimerModule -->
<g id="node14" class="node">
<title>CountdownTimerModule</title>
<polygon fill="#8dd3c7" stroke="#000000" points="3687.5926,-190 3684.5926,-194 3663.5926,-194 3660.5926,-190 3528.4074,-190 3528.4074,-154 3687.5926,-154 3687.5926,-190"/>
<text text-anchor="middle" x="3608" y="-167.8" font-family="Times,serif" font-size="14.00" fill="#000000">CountdownTimerModule</text>
</g>
<!-- CountdownTimerDirective&#45;&gt;CountdownTimerModule -->
<g id="edge12" class="edge">
<title>CountdownTimerDirective&#45;&gt;CountdownTimerModule</title>
<path fill="none" stroke="#000000" d="M3608,-122.2228C3608,-122.2228 3608,-143.7269 3608,-143.7269"/>
<polygon fill="#000000" stroke="#000000" points="3604.5001,-143.7269 3608,-153.7269 3611.5001,-143.727 3604.5001,-143.7269"/>
</g>
<!-- CountdownTimerDirective  -->
<g id="node15" class="node">
<title>CountdownTimerDirective </title>
<polygon fill="#fb8072" stroke="#000000" points="3692.6256,-258 3521.3744,-258 3521.3744,-222 3692.6256,-222 3692.6256,-258"/>
<text text-anchor="middle" x="3607" y="-235.8" font-family="Times,serif" font-size="14.00" fill="#000000">CountdownTimerDirective </text>
</g>
<!-- CountdownTimerModule&#45;&gt;CountdownTimerDirective  -->
<g id="edge13" class="edge">
<title>CountdownTimerModule&#45;&gt;CountdownTimerDirective </title>
<path fill="none" stroke="#000000" stroke-dasharray="5,2" d="M3608,-190.2228C3608,-190.2228 3608,-211.7269 3608,-211.7269"/>
<polygon fill="#000000" stroke="#000000" points="3604.5001,-211.7269 3608,-221.7269 3611.5001,-211.727 3604.5001,-211.7269"/>
</g>
<!-- TripPassagesModule -->
<g id="node47" class="node">
<title>TripPassagesModule</title>
<polygon fill="#8dd3c7" stroke="#000000" points="4079.9144,-258 4076.9144,-262 4055.9144,-262 4052.9144,-258 3946.0856,-258 3946.0856,-222 4079.9144,-222 4079.9144,-258"/>
<text text-anchor="middle" x="4013" y="-235.8" font-family="Times,serif" font-size="14.00" fill="#000000">TripPassagesModule</text>
</g>
<!-- CountdownTimerModule&#45;&gt;TripPassagesModule -->
<g id="edge42" class="edge">
<title>CountdownTimerModule&#45;&gt;TripPassagesModule</title>
<path fill="none" stroke="#000000" d="M3687.5826,-172C3702.0421,-172 3712.6485,-172 3712.6485,-172 3712.6485,-172 3712.6485,-246 3712.6485,-246 3712.6485,-246 3935.9691,-246 3935.9691,-246"/>
<polygon fill="#000000" stroke="#000000" points="3935.9691,-249.5001 3945.9691,-246 3935.9691,-242.5001 3935.9691,-249.5001"/>
</g>
<!-- MainMapDirective -->
<g id="node16" class="node">
<title>MainMapDirective</title>
<polygon fill="#ffffb3" stroke="#000000" points="1908.7921,-190 1785.2079,-190 1785.2079,-154 1908.7921,-154 1908.7921,-190"/>
<text text-anchor="middle" x="1847" y="-167.8" font-family="Times,serif" font-size="14.00" fill="#000000">MainMapDirective</text>
</g>
<!-- MainMapDirective&#45;&gt;MainMapModule -->
<g id="edge14" class="edge">
<title>MainMapDirective&#45;&gt;MainMapModule</title>
<path fill="none" stroke="#000000" d="M1847,-153.8321C1847,-151.5522 1847,-150 1847,-150 1847,-150 1237.3103,-150 1237.3103,-150 1237.3103,-150 1237.3103,-132.1804 1237.3103,-132.1804"/>
<polygon fill="#000000" stroke="#000000" points="1240.8104,-132.1804 1237.3103,-122.1804 1233.8104,-132.1805 1240.8104,-132.1804"/>
</g>
<!-- MainToolbarComponent -->
<g id="node18" class="node">
<title>MainToolbarComponent</title>
<polygon fill="#ffffb3" stroke="#000000" points="2959.7007,-190 2804.2993,-190 2804.2993,-154 2959.7007,-154 2959.7007,-190"/>
<text text-anchor="middle" x="2882" y="-167.8" font-family="Times,serif" font-size="14.00" fill="#000000">MainToolbarComponent</text>
</g>
<!-- MainToolbarComponent&#45;&gt;MainToolbarModule -->
<g id="edge16" class="edge">
<title>MainToolbarComponent&#45;&gt;MainToolbarModule</title>
<path fill="none" stroke="#000000" d="M2882,-153.9445C2882,-142.561 2882,-130 2882,-130 2882,-130 1374.6455,-130 1374.6455,-130 1374.6455,-130 1374.6455,-129.2058 1374.6455,-129.2058"/>
<polygon fill="#000000" stroke="#000000" points="1378.1456,-132.0578 1374.6455,-122.0579 1371.1456,-132.0579 1378.1456,-132.0578"/>
</g>
<!-- RouteLoadingIndicatorComponent -->
<g id="node19" class="node">
<title>RouteLoadingIndicatorComponent</title>
<polygon fill="#ffffb3" stroke="#000000" points="2785.9636,-190 2574.0364,-190 2574.0364,-154 2785.9636,-154 2785.9636,-190"/>
<text text-anchor="middle" x="2680" y="-167.8" font-family="Times,serif" font-size="14.00" fill="#000000">RouteLoadingIndicatorComponent</text>
</g>
<!-- RouteLoadingIndicatorComponent&#45;&gt;MainToolbarModule -->
<g id="edge17" class="edge">
<title>RouteLoadingIndicatorComponent&#45;&gt;MainToolbarModule</title>
<path fill="none" stroke="#000000" d="M2680,-153.8903C2680,-144.103 2680,-134 2680,-134 2680,-134 1357.9682,-134 1357.9682,-134 1357.9682,-134 1357.9682,-132.1432 1357.9682,-132.1432"/>
<polygon fill="#000000" stroke="#000000" points="1361.4683,-132.1432 1357.9682,-122.1432 1354.4683,-132.1432 1361.4683,-132.1432"/>
</g>
<!-- ToolbarSearchBoxComponent -->
<g id="node20" class="node">
<title>ToolbarSearchBoxComponent</title>
<polygon fill="#ffffb3" stroke="#000000" points="3164.5744,-190 2977.4256,-190 2977.4256,-154 3164.5744,-154 3164.5744,-190"/>
<text text-anchor="middle" x="3071" y="-167.8" font-family="Times,serif" font-size="14.00" fill="#000000">ToolbarSearchBoxComponent</text>
</g>
<!-- ToolbarSearchBoxComponent&#45;&gt;MainToolbarModule -->
<g id="edge18" class="edge">
<title>ToolbarSearchBoxComponent&#45;&gt;MainToolbarModule</title>
<path fill="none" stroke="#000000" d="M3071,-153.8196C3071,-140.9618 3071,-126 3071,-126 3071,-126 1391.3228,-126 1391.3228,-126 1391.3228,-126 1391.3228,-125.6168 1391.3228,-125.6168"/>
<polygon fill="#000000" stroke="#000000" points="1394.823,-132.1678 1391.3228,-122.1679 1387.823,-132.168 1394.823,-132.1678"/>
</g>
<!-- MapHeaderBoxComponent -->
<g id="node24" class="node">
<title>MapHeaderBoxComponent</title>
<polygon fill="#ffffb3" stroke="#000000" points="4476.2394,-122 4305.7606,-122 4305.7606,-86 4476.2394,-86 4476.2394,-122"/>
<text text-anchor="middle" x="4391" y="-99.8" font-family="Times,serif" font-size="14.00" fill="#000000">MapHeaderBoxComponent</text>
</g>
<!-- MapHeaderBoxModule -->
<g id="node25" class="node">
<title>MapHeaderBoxModule</title>
<polygon fill="#8dd3c7" stroke="#000000" points="4465.4566,-190 4462.4566,-194 4441.4566,-194 4438.4566,-190 4316.5434,-190 4316.5434,-154 4465.4566,-154 4465.4566,-190"/>
<text text-anchor="middle" x="4391" y="-167.8" font-family="Times,serif" font-size="14.00" fill="#000000">MapHeaderBoxModule</text>
</g>
<!-- MapHeaderBoxComponent&#45;&gt;MapHeaderBoxModule -->
<g id="edge22" class="edge">
<title>MapHeaderBoxComponent&#45;&gt;MapHeaderBoxModule</title>
<path fill="none" stroke="#000000" d="M4391,-122.2228C4391,-122.2228 4391,-143.7269 4391,-143.7269"/>
<polygon fill="#000000" stroke="#000000" points="4387.5001,-143.7269 4391,-153.7269 4394.5001,-143.727 4387.5001,-143.7269"/>
</g>
<!-- MapHeaderBoxComponent  -->
<g id="node26" class="node">
<title>MapHeaderBoxComponent </title>
<polygon fill="#fb8072" stroke="#000000" points="4478.2394,-258 4303.7606,-258 4303.7606,-222 4478.2394,-222 4478.2394,-258"/>
<text text-anchor="middle" x="4391" y="-235.8" font-family="Times,serif" font-size="14.00" fill="#000000">MapHeaderBoxComponent </text>
</g>
<!-- MapHeaderBoxModule&#45;&gt;MapHeaderBoxComponent  -->
<g id="edge23" class="edge">
<title>MapHeaderBoxModule&#45;&gt;MapHeaderBoxComponent </title>
<path fill="none" stroke="#000000" stroke-dasharray="5,2" d="M4391,-190.2228C4391,-190.2228 4391,-211.7269 4391,-211.7269"/>
<polygon fill="#000000" stroke="#000000" points="4387.5001,-211.7269 4391,-221.7269 4394.5001,-211.727 4387.5001,-211.7269"/>
</g>
<!-- StopModule -->
<g id="node40" class="node">
<title>StopModule</title>
<polygon fill="#8dd3c7" stroke="#000000" points="4961.7233,-258 4958.7233,-262 4937.7233,-262 4934.7233,-258 4876.2767,-258 4876.2767,-222 4961.7233,-222 4961.7233,-258"/>
<text text-anchor="middle" x="4919" y="-235.8" font-family="Times,serif" font-size="14.00" fill="#000000">StopModule</text>
</g>
<!-- MapHeaderBoxModule&#45;&gt;StopModule -->
<g id="edge35" class="edge">
<title>MapHeaderBoxModule&#45;&gt;StopModule</title>
<path fill="none" stroke="#000000" d="M4465.5884,-172C4483.7046,-172 4497.9746,-172 4497.9746,-172 4497.9746,-172 4497.9746,-249 4497.9746,-249 4497.9746,-249 4866.3129,-249 4866.3129,-249"/>
<polygon fill="#000000" stroke="#000000" points="4866.3129,-252.5001 4876.3129,-249 4866.3128,-245.5001 4866.3129,-252.5001"/>
</g>
<!-- MapHeaderBoxModule&#45;&gt;TripPassagesModule -->
<g id="edge43" class="edge">
<title>MapHeaderBoxModule&#45;&gt;TripPassagesModule</title>
<path fill="none" stroke="#000000" d="M4316.5034,-172C4298.2003,-172 4283.7386,-172 4283.7386,-172 4283.7386,-172 4283.7386,-246 4283.7386,-246 4283.7386,-246 4089.9242,-246 4089.9242,-246"/>
<polygon fill="#000000" stroke="#000000" points="4089.9242,-242.5001 4079.9242,-246 4089.9241,-249.5001 4089.9242,-242.5001"/>
</g>
<!-- NotFoundComponent -->
<g id="node27" class="node">
<title>NotFoundComponent</title>
<polygon fill="#ffffb3" stroke="#000000" points="5888.1122,-122 5749.8878,-122 5749.8878,-86 5888.1122,-86 5888.1122,-122"/>
<text text-anchor="middle" x="5819" y="-99.8" font-family="Times,serif" font-size="14.00" fill="#000000">NotFoundComponent</text>
</g>
<!-- NotFoundModule -->
<g id="node28" class="node">
<title>NotFoundModule</title>
<polygon fill="#8dd3c7" stroke="#000000" points="5790.3301,-190 5787.3301,-194 5766.3301,-194 5763.3301,-190 5673.6699,-190 5673.6699,-154 5790.3301,-154 5790.3301,-190"/>
<text text-anchor="middle" x="5732" y="-167.8" font-family="Times,serif" font-size="14.00" fill="#000000">NotFoundModule</text>
</g>
<!-- NotFoundComponent&#45;&gt;NotFoundModule -->
<g id="edge24" class="edge">
<title>NotFoundComponent&#45;&gt;NotFoundModule</title>
<path fill="none" stroke="#000000" d="M5770.0544,-122.2228C5770.0544,-122.2228 5770.0544,-143.7269 5770.0544,-143.7269"/>
<polygon fill="#000000" stroke="#000000" points="5766.5544,-143.7269 5770.0544,-153.7269 5773.5544,-143.727 5766.5544,-143.7269"/>
</g>
<!-- NotFoundRoutingModule -->
<g id="node29" class="node">
<title>NotFoundRoutingModule</title>
<polygon fill="#8dd3c7" stroke="#000000" points="5725.948,-122 5722.948,-126 5701.948,-126 5698.948,-122 5564.052,-122 5564.052,-86 5725.948,-86 5725.948,-122"/>
<text text-anchor="middle" x="5645" y="-99.8" font-family="Times,serif" font-size="14.00" fill="#000000">NotFoundRoutingModule</text>
</g>
<!-- NotFoundRoutingModule&#45;&gt;NotFoundModule -->
<g id="edge25" class="edge">
<title>NotFoundRoutingModule&#45;&gt;NotFoundModule</title>
<path fill="none" stroke="#000000" d="M5699.7795,-122.2228C5699.7795,-122.2228 5699.7795,-143.7269 5699.7795,-143.7269"/>
<polygon fill="#000000" stroke="#000000" points="5696.2795,-143.7269 5699.7795,-153.7269 5703.2795,-143.727 5696.2795,-143.7269"/>
</g>
<!-- RetryDialogComponent -->
<g id="node30" class="node">
<title>RetryDialogComponent</title>
<polygon fill="#ffffb3" stroke="#000000" points="6081.0379,-122 5930.9621,-122 5930.9621,-86 6081.0379,-86 6081.0379,-122"/>
<text text-anchor="middle" x="6006" y="-99.8" font-family="Times,serif" font-size="14.00" fill="#000000">RetryDialogComponent</text>
</g>
<!-- RetryDialogModule -->
<g id="node31" class="node">
<title>RetryDialogModule</title>
<polygon fill="#8dd3c7" stroke="#000000" points="6070.2548,-190 6067.2548,-194 6046.2548,-194 6043.2548,-190 5941.7452,-190 5941.7452,-154 6070.2548,-154 6070.2548,-190"/>
<text text-anchor="middle" x="6006" y="-167.8" font-family="Times,serif" font-size="14.00" fill="#000000">RetryDialogModule</text>
</g>
<!-- RetryDialogComponent&#45;&gt;RetryDialogModule -->
<g id="edge26" class="edge">
<title>RetryDialogComponent&#45;&gt;RetryDialogModule</title>
<path fill="none" stroke="#000000" d="M6006,-122.2228C6006,-122.2228 6006,-143.7269 6006,-143.7269"/>
<polygon fill="#000000" stroke="#000000" points="6002.5001,-143.7269 6006,-153.7269 6009.5001,-143.727 6002.5001,-143.7269"/>
</g>
<!-- RetryDialogComponent  -->
<g id="node32" class="node">
<title>RetryDialogComponent </title>
<polygon fill="#fb8072" stroke="#000000" points="6082.0372,-258 5927.9628,-258 5927.9628,-222 6082.0372,-222 6082.0372,-258"/>
<text text-anchor="middle" x="6005" y="-235.8" font-family="Times,serif" font-size="14.00" fill="#000000">RetryDialogComponent </text>
</g>
<!-- RetryDialogModule&#45;&gt;RetryDialogComponent  -->
<g id="edge27" class="edge">
<title>RetryDialogModule&#45;&gt;RetryDialogComponent </title>
<path fill="none" stroke="#000000" stroke-dasharray="5,2" d="M6006,-190.2228C6006,-190.2228 6006,-211.7269 6006,-211.7269"/>
<polygon fill="#000000" stroke="#000000" points="6002.5001,-211.7269 6006,-221.7269 6009.5001,-211.727 6002.5001,-211.7269"/>
</g>
<!-- StopsModule -->
<g id="node43" class="node">
<title>StopsModule</title>
<polygon fill="#8dd3c7" stroke="#000000" points="6235.1682,-258 6232.1682,-262 6211.1682,-262 6208.1682,-258 6144.8318,-258 6144.8318,-222 6235.1682,-222 6235.1682,-258"/>
<text text-anchor="middle" x="6190" y="-235.8" font-family="Times,serif" font-size="14.00" fill="#000000">StopsModule</text>
</g>
<!-- RetryDialogModule&#45;&gt;StopsModule -->
<g id="edge38" class="edge">
<title>RetryDialogModule&#45;&gt;StopsModule</title>
<path fill="none" stroke="#000000" d="M6070.3421,-172C6087.8414,-172 6102.0629,-172 6102.0629,-172 6102.0629,-172 6102.0629,-240 6102.0629,-240 6102.0629,-240 6134.7435,-240 6134.7435,-240"/>
<polygon fill="#000000" stroke="#000000" points="6134.7435,-243.5001 6144.7435,-240 6134.7435,-236.5001 6134.7435,-243.5001"/>
</g>
<!-- SidebarComponent -->
<g id="node33" class="node">
<title>SidebarComponent</title>
<polygon fill="#ffffb3" stroke="#000000" points="3481.0954,-190 3356.9046,-190 3356.9046,-154 3481.0954,-154 3481.0954,-190"/>
<text text-anchor="middle" x="3419" y="-167.8" font-family="Times,serif" font-size="14.00" fill="#000000">SidebarComponent</text>
</g>
<!-- SidebarComponent&#45;&gt;SidebarModule -->
<g id="edge28" class="edge">
<title>SidebarComponent&#45;&gt;SidebarModule</title>
<path fill="none" stroke="#000000" d="M3419,-153.7079C3419,-131.7943 3419,-98 3419,-98 3419,-98 1605.6136,-98 1605.6136,-98"/>
<polygon fill="#000000" stroke="#000000" points="1605.6136,-94.5001 1595.6136,-98 1605.6136,-101.5001 1605.6136,-94.5001"/>
</g>
<!-- DepartureListComponent -->
<g id="node35" class="node">
<title>DepartureListComponent</title>
<polygon fill="#ffffb3" stroke="#000000" points="5188.573,-190 5029.427,-190 5029.427,-154 5188.573,-154 5188.573,-190"/>
<text text-anchor="middle" x="5109" y="-167.8" font-family="Times,serif" font-size="14.00" fill="#000000">DepartureListComponent</text>
</g>
<!-- DepartureListComponent&#45;&gt;StopModule -->
<g id="edge30" class="edge">
<title>DepartureListComponent&#45;&gt;StopModule</title>
<path fill="none" stroke="#000000" d="M5109,-190.0225C5109,-207.3734 5109,-231 5109,-231 5109,-231 4971.6397,-231 4971.6397,-231"/>
<polygon fill="#000000" stroke="#000000" points="4971.6397,-227.5001 4961.6397,-231 4971.6397,-234.5001 4971.6397,-227.5001"/>
</g>
<!-- DepartureListItemComponent -->
<g id="node36" class="node">
<title>DepartureListItemComponent</title>
<polygon fill="#ffffb3" stroke="#000000" points="5011.2296,-190 4826.7704,-190 4826.7704,-154 5011.2296,-154 5011.2296,-190"/>
<text text-anchor="middle" x="4919" y="-167.8" font-family="Times,serif" font-size="14.00" fill="#000000">DepartureListItemComponent</text>
</g>
<!-- DepartureListItemComponent&#45;&gt;StopModule -->
<g id="edge31" class="edge">
<title>DepartureListItemComponent&#45;&gt;StopModule</title>
<path fill="none" stroke="#000000" d="M4919,-190.2228C4919,-190.2228 4919,-211.7269 4919,-211.7269"/>
<polygon fill="#000000" stroke="#000000" points="4915.5001,-211.7269 4919,-221.7269 4922.5001,-211.727 4915.5001,-211.7269"/>
</g>
<!-- RouteListComponent -->
<g id="node37" class="node">
<title>RouteListComponent</title>
<polygon fill="#ffffb3" stroke="#000000" points="4808.0533,-190 4671.9467,-190 4671.9467,-154 4808.0533,-154 4808.0533,-190"/>
<text text-anchor="middle" x="4740" y="-167.8" font-family="Times,serif" font-size="14.00" fill="#000000">RouteListComponent</text>
</g>
<!-- RouteListComponent&#45;&gt;StopModule -->
<g id="edge32" class="edge">
<title>RouteListComponent&#45;&gt;StopModule</title>
<path fill="none" stroke="#000000" d="M4740,-190.0225C4740,-207.3734 4740,-231 4740,-231 4740,-231 4866.125,-231 4866.125,-231"/>
<polygon fill="#000000" stroke="#000000" points="4866.1251,-234.5001 4876.125,-231 4866.125,-227.5001 4866.1251,-234.5001"/>
</g>
<!-- StopInfoComponent -->
<g id="node38" class="node">
<title>StopInfoComponent</title>
<polygon fill="#ffffb3" stroke="#000000" points="5524.3272,-190 5393.6728,-190 5393.6728,-154 5524.3272,-154 5524.3272,-190"/>
<text text-anchor="middle" x="5459" y="-167.8" font-family="Times,serif" font-size="14.00" fill="#000000">StopInfoComponent</text>
</g>
<!-- StopInfoComponent&#45;&gt;StopModule -->
<g id="edge33" class="edge">
<title>StopInfoComponent&#45;&gt;StopModule</title>
<path fill="none" stroke="#000000" d="M5459,-190.2479C5459,-213.0179 5459,-249 5459,-249 5459,-249 4971.8243,-249 4971.8243,-249"/>
<polygon fill="#000000" stroke="#000000" points="4971.8243,-245.5001 4961.8243,-249 4971.8242,-252.5001 4971.8243,-245.5001"/>
</g>
<!-- StopLocationMapDirective -->
<g id="node39" class="node">
<title>StopLocationMapDirective</title>
<polygon fill="#ffffb3" stroke="#000000" points="5375.6783,-190 5206.3217,-190 5206.3217,-154 5375.6783,-154 5375.6783,-190"/>
<text text-anchor="middle" x="5291" y="-167.8" font-family="Times,serif" font-size="14.00" fill="#000000">StopLocationMapDirective</text>
</g>
<!-- StopLocationMapDirective&#45;&gt;StopModule -->
<g id="edge34" class="edge">
<title>StopLocationMapDirective&#45;&gt;StopModule</title>
<path fill="none" stroke="#000000" d="M5291,-190.2228C5291,-210.3652 5291,-240 5291,-240 5291,-240 4971.6731,-240 4971.6731,-240"/>
<polygon fill="#000000" stroke="#000000" points="4971.6732,-236.5001 4961.6731,-240 4971.6731,-243.5001 4971.6732,-236.5001"/>
</g>
<!-- StopRoutingModule -->
<g id="node41" class="node">
<title>StopRoutingModule</title>
<polygon fill="#8dd3c7" stroke="#000000" points="4648.3412,-190 4645.3412,-194 4624.3412,-194 4621.3412,-190 4517.6588,-190 4517.6588,-154 4648.3412,-154 4648.3412,-190"/>
<text text-anchor="middle" x="4583" y="-167.8" font-family="Times,serif" font-size="14.00" fill="#000000">StopRoutingModule</text>
</g>
<!-- StopRoutingModule&#45;&gt;StopModule -->
<g id="edge36" class="edge">
<title>StopRoutingModule&#45;&gt;StopModule</title>
<path fill="none" stroke="#000000" d="M4583,-190.2228C4583,-210.3652 4583,-240 4583,-240 4583,-240 4866.1041,-240 4866.1041,-240"/>
<polygon fill="#000000" stroke="#000000" points="4866.1041,-243.5001 4876.1041,-240 4866.104,-236.5001 4866.1041,-243.5001"/>
</g>
<!-- StopsInfoComponent -->
<g id="node42" class="node">
<title>StopsInfoComponent</title>
<polygon fill="#ffffb3" stroke="#000000" points="6417.7716,-190 6282.2284,-190 6282.2284,-154 6417.7716,-154 6417.7716,-190"/>
<text text-anchor="middle" x="6350" y="-167.8" font-family="Times,serif" font-size="14.00" fill="#000000">StopsInfoComponent</text>
</g>
<!-- StopsInfoComponent&#45;&gt;StopsModule -->
<g id="edge37" class="edge">
<title>StopsInfoComponent&#45;&gt;StopsModule</title>
<path fill="none" stroke="#000000" d="M6350,-190.2228C6350,-210.3652 6350,-240 6350,-240 6350,-240 6245.4216,-240 6245.4216,-240"/>
<polygon fill="#000000" stroke="#000000" points="6245.4216,-236.5001 6235.4216,-240 6245.4216,-243.5001 6245.4216,-236.5001"/>
</g>
<!-- StopsRoutingModule -->
<g id="node44" class="node">
<title>StopsRoutingModule</title>
<polygon fill="#8dd3c7" stroke="#000000" points="6257.7856,-190 6254.7856,-194 6233.7856,-194 6230.7856,-190 6122.2144,-190 6122.2144,-154 6257.7856,-154 6257.7856,-190"/>
<text text-anchor="middle" x="6190" y="-167.8" font-family="Times,serif" font-size="14.00" fill="#000000">StopsRoutingModule</text>
</g>
<!-- StopsRoutingModule&#45;&gt;StopsModule -->
<g id="edge39" class="edge">
<title>StopsRoutingModule&#45;&gt;StopsModule</title>
<path fill="none" stroke="#000000" d="M6190,-190.2228C6190,-190.2228 6190,-211.7269 6190,-211.7269"/>
<polygon fill="#000000" stroke="#000000" points="6186.5001,-211.7269 6190,-221.7269 6193.5001,-211.727 6186.5001,-211.7269"/>
</g>
<!-- FollowBusMapDirective -->
<g id="node45" class="node">
<title>FollowBusMapDirective</title>
<polygon fill="#ffffb3" stroke="#000000" points="4263.6937,-190 4108.3063,-190 4108.3063,-154 4263.6937,-154 4263.6937,-190"/>
<text text-anchor="middle" x="4186" y="-167.8" font-family="Times,serif" font-size="14.00" fill="#000000">FollowBusMapDirective</text>
</g>
<!-- FollowBusMapDirective&#45;&gt;TripPassagesModule -->
<g id="edge40" class="edge">
<title>FollowBusMapDirective&#45;&gt;TripPassagesModule</title>
<path fill="none" stroke="#000000" d="M4186,-190.2667C4186,-208.5552 4186,-234 4186,-234 4186,-234 4089.8863,-234 4089.8863,-234"/>
<polygon fill="#000000" stroke="#000000" points="4089.8864,-230.5001 4079.8863,-234 4089.8863,-237.5001 4089.8864,-230.5001"/>
</g>
<!-- TripPassagesComponent -->
<g id="node46" class="node">
<title>TripPassagesComponent</title>
<polygon fill="#ffffb3" stroke="#000000" points="4090.6965,-190 3935.3035,-190 3935.3035,-154 4090.6965,-154 4090.6965,-190"/>
<text text-anchor="middle" x="4013" y="-167.8" font-family="Times,serif" font-size="14.00" fill="#000000">TripPassagesComponent</text>
</g>
<!-- TripPassagesComponent&#45;&gt;TripPassagesModule -->
<g id="edge41" class="edge">
<title>TripPassagesComponent&#45;&gt;TripPassagesModule</title>
<path fill="none" stroke="#000000" d="M4013,-190.2228C4013,-190.2228 4013,-211.7269 4013,-211.7269"/>
<polygon fill="#000000" stroke="#000000" points="4009.5001,-211.7269 4013,-221.7269 4016.5001,-211.727 4009.5001,-211.7269"/>
</g>
<!-- TripPassagesRoutingModule -->
<g id="node48" class="node">
<title>TripPassagesRoutingModule</title>
<polygon fill="#8dd3c7" stroke="#000000" points="3911.0322,-190 3908.0322,-194 3887.0322,-194 3884.0322,-190 3732.9678,-190 3732.9678,-154 3911.0322,-154 3911.0322,-190"/>
<text text-anchor="middle" x="3822" y="-167.8" font-family="Times,serif" font-size="14.00" fill="#000000">TripPassagesRoutingModule</text>
</g>
<!-- TripPassagesRoutingModule&#45;&gt;TripPassagesModule -->
<g id="edge44" class="edge">
<title>TripPassagesRoutingModule&#45;&gt;TripPassagesModule</title>
<path fill="none" stroke="#000000" d="M3822,-190.2667C3822,-208.5552 3822,-234 3822,-234 3822,-234 3936.1975,-234 3936.1975,-234"/>
<polygon fill="#000000" stroke="#000000" points="3936.1975,-237.5001 3946.1975,-234 3936.1974,-230.5001 3936.1975,-237.5001"/>
</g>
</g>
</svg>
