<?xml version="1.0" encoding="UTF-8" standalone="no"?>
<!DOCTYPE svg PUBLIC "-//W3C//DTD SVG 1.1//EN"
 "http://www.w3.org/Graphics/SVG/1.1/DTD/svg11.dtd">
<!-- Generated by graphviz version 2.40.1 (20161225.0304)
 -->
<!-- Title: dependencies Pages: 1 -->
<svg width="1230pt" height="211pt"
 viewBox="0.00 0.00 1230.00 211.00" xmlns="http://www.w3.org/2000/svg" xmlns:xlink="http://www.w3.org/1999/xlink">
<g id="graph0" class="graph" transform="scale(1 1) rotate(0) translate(4 207)">
<title>dependencies</title>
<polygon fill="#ffffff" stroke="transparent" points="-4,4 -4,-207 1226,-207 1226,4 -4,4"/>
<text text-anchor="start" x="590.0091" y="-42.4" font-family="sans-serif" font-weight="bold" font-size="14.00" fill="#000000">Legend</text>
<polygon fill="#ffffb3" stroke="transparent" points="377,-10 377,-30 397,-30 397,-10 377,-10"/>
<text text-anchor="start" x="400.629" y="-15.4" font-family="sans-serif" font-size="14.00" fill="#000000"> &#160;Declarations</text>
<polygon fill="#8dd3c7" stroke="transparent" points="490,-10 490,-30 510,-30 510,-10 490,-10"/>
<text text-anchor="start" x="513.7251" y="-15.4" font-family="sans-serif" font-size="14.00" fill="#000000"> &#160;Module</text>
<polygon fill="#80b1d3" stroke="transparent" points="576,-10 576,-30 596,-30 596,-10 576,-10"/>
<text text-anchor="start" x="599.7812" y="-15.4" font-family="sans-serif" font-size="14.00" fill="#000000"> &#160;Bootstrap</text>
<polygon fill="#fdb462" stroke="transparent" points="673,-10 673,-30 693,-30 693,-10 673,-10"/>
<text text-anchor="start" x="696.6732" y="-15.4" font-family="sans-serif" font-size="14.00" fill="#000000"> &#160;Providers</text>
<polygon fill="#fb8072" stroke="transparent" points="769,-10 769,-30 789,-30 789,-10 769,-10"/>
<text text-anchor="start" x="792.7258" y="-15.4" font-family="sans-serif" font-size="14.00" fill="#000000"> &#160;Exports</text>
<g id="clust1" class="cluster">
<title>cluster_StopModule</title>
<polygon fill="none" stroke="#000000" stroke-dasharray="1,5" points="8,-70 8,-195 1214,-195 1214,-70 8,-70"/>
</g>
<g id="clust2" class="cluster">
<title>cluster_StopModule_declarations</title>
<polygon fill="none" stroke="#000000" points="337,-78 337,-130 1206,-130 1206,-78 337,-78"/>
</g>
<g id="clust8" class="cluster">
<title>cluster_StopModule_imports</title>
<polygon fill="none" stroke="#000000" points="16,-78 16,-130 329,-130 329,-78 16,-78"/>
</g>
<!-- DepartureListComponent -->
<g id="node1" class="node">
<title>DepartureListComponent</title>
<polygon fill="#ffffb3" stroke="#000000" points="1197.573,-122 1038.427,-122 1038.427,-86 1197.573,-86 1197.573,-122"/>
<text text-anchor="middle" x="1118" y="-99.8" font-family="Times,serif" font-size="14.00" fill="#000000">DepartureListComponent</text>
</g>
<!-- StopModule -->
<g id="node6" class="node">
<title>StopModule</title>
<polygon fill="#8dd3c7" stroke="#000000" points="640.7233,-187 637.7233,-191 616.7233,-191 613.7233,-187 555.2767,-187 555.2767,-151 640.7233,-151 640.7233,-187"/>
<text text-anchor="middle" x="598" y="-164.8" font-family="Times,serif" font-size="14.00" fill="#000000">StopModule</text>
</g>
<!-- DepartureListComponent&#45;&gt;StopModule -->
<g id="edge1" class="edge">
<title>DepartureListComponent&#45;&gt;StopModule</title>
<path fill="none" stroke="#000000" d="M1118,-122.2921C1118,-144.2057 1118,-178 1118,-178 1118,-178 650.9962,-178 650.9962,-178"/>
<polygon fill="#000000" stroke="#000000" points="650.9962,-174.5001 640.9962,-178 650.9961,-181.5001 650.9962,-174.5001"/>
</g>
<!-- DepartureListItemComponent -->
<g id="node2" class="node">
<title>DepartureListItemComponent</title>
<polygon fill="#ffffb3" stroke="#000000" points="1020.2296,-122 835.7704,-122 835.7704,-86 1020.2296,-86 1020.2296,-122"/>
<text text-anchor="middle" x="928" y="-99.8" font-family="Times,serif" font-size="14.00" fill="#000000">DepartureListItemComponent</text>
</g>
<!-- DepartureListItemComponent&#45;&gt;StopModule -->
<g id="edge2" class="edge">
<title>DepartureListItemComponent&#45;&gt;StopModule</title>
<path fill="none" stroke="#000000" d="M928,-122.1061C928,-141.3391 928,-169 928,-169 928,-169 650.8034,-169 650.8034,-169"/>
<polygon fill="#000000" stroke="#000000" points="650.8035,-165.5001 640.8034,-169 650.8034,-172.5001 650.8035,-165.5001"/>
</g>
<!-- RouteListComponent -->
<g id="node3" class="node">
<title>RouteListComponent</title>
<polygon fill="#ffffb3" stroke="#000000" points="817.0533,-122 680.9467,-122 680.9467,-86 817.0533,-86 817.0533,-122"/>
<text text-anchor="middle" x="749" y="-99.8" font-family="Times,serif" font-size="14.00" fill="#000000">RouteListComponent</text>
</g>
<!-- RouteListComponent&#45;&gt;StopModule -->
<g id="edge3" class="edge">
<title>RouteListComponent&#45;&gt;StopModule</title>
<path fill="none" stroke="#000000" d="M749,-122.027C749,-138.3976 749,-160 749,-160 749,-160 650.8666,-160 650.8666,-160"/>
<polygon fill="#000000" stroke="#000000" points="650.8667,-156.5001 640.8666,-160 650.8666,-163.5001 650.8667,-156.5001"/>
</g>
<!-- StopInfoComponent -->
<g id="node4" class="node">
<title>StopInfoComponent</title>
<polygon fill="#ffffb3" stroke="#000000" points="663.3272,-122 532.6728,-122 532.6728,-86 663.3272,-86 663.3272,-122"/>
<text text-anchor="middle" x="598" y="-99.8" font-family="Times,serif" font-size="14.00" fill="#000000">StopInfoComponent</text>
</g>
<!-- StopInfoComponent&#45;&gt;StopModule -->
<g id="edge4" class="edge">
<title>StopInfoComponent&#45;&gt;StopModule</title>
<path fill="none" stroke="#000000" d="M598,-122.1061C598,-122.1061 598,-140.991 598,-140.991"/>
<polygon fill="#000000" stroke="#000000" points="594.5001,-140.9909 598,-150.991 601.5001,-140.991 594.5001,-140.9909"/>
</g>
<!-- StopLocationMapDirective -->
<g id="node5" class="node">
<title>StopLocationMapDirective</title>
<polygon fill="#ffffb3" stroke="#000000" points="514.6783,-122 345.3217,-122 345.3217,-86 514.6783,-86 514.6783,-122"/>
<text text-anchor="middle" x="430" y="-99.8" font-family="Times,serif" font-size="14.00" fill="#000000">StopLocationMapDirective</text>
</g>
<!-- StopLocationMapDirective&#45;&gt;StopModule -->
<g id="edge5" class="edge">
<title>StopLocationMapDirective&#45;&gt;StopModule</title>
<path fill="none" stroke="#000000" d="M430,-122.027C430,-138.3976 430,-160 430,-160 430,-160 545.1718,-160 545.1718,-160"/>
<polygon fill="#000000" stroke="#000000" points="545.1719,-163.5001 555.1718,-160 545.1718,-156.5001 545.1719,-163.5001"/>
</g>
<!-- MapHeaderBoxModule -->
<g id="node7" class="node">
<title>MapHeaderBoxModule</title>
<polygon fill="#8dd3c7" stroke="#000000" points="321.4566,-122 318.4566,-126 297.4566,-126 294.4566,-122 172.5434,-122 172.5434,-86 321.4566,-86 321.4566,-122"/>
<text text-anchor="middle" x="247" y="-99.8" font-family="Times,serif" font-size="14.00" fill="#000000">MapHeaderBoxModule</text>
</g>
<!-- MapHeaderBoxModule&#45;&gt;StopModule -->
<g id="edge6" class="edge">
<title>MapHeaderBoxModule&#45;&gt;StopModule</title>
<path fill="none" stroke="#000000" d="M247,-122.1061C247,-141.3391 247,-169 247,-169 247,-169 545.3114,-169 545.3114,-169"/>
<polygon fill="#000000" stroke="#000000" points="545.3115,-172.5001 555.3114,-169 545.3114,-165.5001 545.3115,-172.5001"/>
</g>
<!-- StopRoutingModule -->
<g id="node8" class="node">
<title>StopRoutingModule</title>
<polygon fill="#8dd3c7" stroke="#000000" points="154.3412,-122 151.3412,-126 130.3412,-126 127.3412,-122 23.6588,-122 23.6588,-86 154.3412,-86 154.3412,-122"/>
<text text-anchor="middle" x="89" y="-99.8" font-family="Times,serif" font-size="14.00" fill="#000000">StopRoutingModule</text>
</g>
<!-- StopRoutingModule&#45;&gt;StopModule -->
<g id="edge7" class="edge">
<title>StopRoutingModule&#45;&gt;StopModule</title>
<path fill="none" stroke="#000000" d="M89,-122.2921C89,-144.2057 89,-178 89,-178 89,-178 545.0416,-178 545.0416,-178"/>
<polygon fill="#000000" stroke="#000000" points="545.0417,-181.5001 555.0416,-178 545.0416,-174.5001 545.0417,-181.5001"/>
</g>
</g>
</svg>
