<?xml version="1.0" encoding="UTF-8" standalone="no"?>
<!DOCTYPE svg PUBLIC "-//W3C//DTD SVG 1.1//EN"
 "http://www.w3.org/Graphics/SVG/1.1/DTD/svg11.dtd">
<!-- Generated by graphviz version 2.40.1 (20161225.0304)
 -->
<!-- Title: dependencies Pages: 1 -->
<svg width="656pt" height="284pt"
 viewBox="0.00 0.00 656.00 284.00" xmlns="http://www.w3.org/2000/svg" xmlns:xlink="http://www.w3.org/1999/xlink">
<g id="graph0" class="graph" transform="scale(1 1) rotate(0) translate(4 280)">
<title>dependencies</title>
<polygon fill="#ffffff" stroke="transparent" points="-4,4 -4,-280 652,-280 652,4 -4,4"/>
<text text-anchor="start" x="303.0091" y="-42.4" font-family="sans-serif" font-weight="bold" font-size="14.00" fill="#000000">Legend</text>
<polygon fill="#ffffb3" stroke="transparent" points="90,-10 90,-30 110,-30 110,-10 90,-10"/>
<text text-anchor="start" x="113.629" y="-15.4" font-family="sans-serif" font-size="14.00" fill="#000000"> &#160;Declarations</text>
<polygon fill="#8dd3c7" stroke="transparent" points="203,-10 203,-30 223,-30 223,-10 203,-10"/>
<text text-anchor="start" x="226.7251" y="-15.4" font-family="sans-serif" font-size="14.00" fill="#000000"> &#160;Module</text>
<polygon fill="#80b1d3" stroke="transparent" points="289,-10 289,-30 309,-30 309,-10 289,-10"/>
<text text-anchor="start" x="312.7812" y="-15.4" font-family="sans-serif" font-size="14.00" fill="#000000"> &#160;Bootstrap</text>
<polygon fill="#fdb462" stroke="transparent" points="386,-10 386,-30 406,-30 406,-10 386,-10"/>
<text text-anchor="start" x="409.6732" y="-15.4" font-family="sans-serif" font-size="14.00" fill="#000000"> &#160;Providers</text>
<polygon fill="#fb8072" stroke="transparent" points="482,-10 482,-30 502,-30 502,-10 482,-10"/>
<text text-anchor="start" x="505.7258" y="-15.4" font-family="sans-serif" font-size="14.00" fill="#000000"> &#160;Exports</text>
<g id="clust1" class="cluster">
<title>cluster_MainToolbarModule</title>
<polygon fill="none" stroke="#000000" stroke-dasharray="1,5" points="8,-70 8,-268 640,-268 640,-70 8,-70"/>
</g>
<g id="clust2" class="cluster">
<title>cluster_MainToolbarModule_declarations</title>
<polygon fill="none" stroke="#000000" points="20,-78 20,-130 628,-130 628,-78 20,-78"/>
</g>
<g id="clust7" class="cluster">
<title>cluster_MainToolbarModule_exports</title>
<polygon fill="none" stroke="#000000" points="16,-208 16,-260 632,-260 632,-208 16,-208"/>
</g>
<!-- MainToolbarComponent -->
<g id="node1" class="node">
<title>MainToolbarComponent</title>
<polygon fill="#ffffb3" stroke="#000000" points="619.7007,-122 464.2993,-122 464.2993,-86 619.7007,-86 619.7007,-122"/>
<text text-anchor="middle" x="542" y="-99.8" font-family="Times,serif" font-size="14.00" fill="#000000">MainToolbarComponent</text>
</g>
<!-- MainToolbarModule -->
<g id="node4" class="node">
<title>MainToolbarModule</title>
<polygon fill="#8dd3c7" stroke="#000000" points="406.9187,-187 403.9187,-191 382.9187,-191 379.9187,-187 273.0813,-187 273.0813,-151 406.9187,-151 406.9187,-187"/>
<text text-anchor="middle" x="340" y="-164.8" font-family="Times,serif" font-size="14.00" fill="#000000">MainToolbarModule</text>
</g>
<!-- MainToolbarComponent&#45;&gt;MainToolbarModule -->
<g id="edge1" class="edge">
<title>MainToolbarComponent&#45;&gt;MainToolbarModule</title>
<path fill="none" stroke="#000000" d="M568.2834,-122.0225C568.2834,-139.3734 568.2834,-163 568.2834,-163 568.2834,-163 416.9501,-163 416.9501,-163"/>
<polygon fill="#000000" stroke="#000000" points="416.9501,-159.5001 406.9501,-163 416.9501,-166.5001 416.9501,-159.5001"/>
</g>
<!-- RouteLoadingIndicatorComponent -->
<g id="node2" class="node">
<title>RouteLoadingIndicatorComponent</title>
<polygon fill="#ffffb3" stroke="#000000" points="445.9636,-122 234.0364,-122 234.0364,-86 445.9636,-86 445.9636,-122"/>
<text text-anchor="middle" x="340" y="-99.8" font-family="Times,serif" font-size="14.00" fill="#000000">RouteLoadingIndicatorComponent</text>
</g>
<!-- RouteLoadingIndicatorComponent&#45;&gt;MainToolbarModule -->
<g id="edge2" class="edge">
<title>RouteLoadingIndicatorComponent&#45;&gt;MainToolbarModule</title>
<path fill="none" stroke="#000000" d="M340,-122.1061C340,-122.1061 340,-140.991 340,-140.991"/>
<polygon fill="#000000" stroke="#000000" points="336.5001,-140.9909 340,-150.991 343.5001,-140.991 336.5001,-140.9909"/>
</g>
<!-- ToolbarSearchBoxComponent -->
<g id="node3" class="node">
<title>ToolbarSearchBoxComponent</title>
<polygon fill="#ffffb3" stroke="#000000" points="215.5744,-122 28.4256,-122 28.4256,-86 215.5744,-86 215.5744,-122"/>
<text text-anchor="middle" x="122" y="-99.8" font-family="Times,serif" font-size="14.00" fill="#000000">ToolbarSearchBoxComponent</text>
</g>
<!-- ToolbarSearchBoxComponent&#45;&gt;MainToolbarModule -->
<g id="edge3" class="edge">
<title>ToolbarSearchBoxComponent&#45;&gt;MainToolbarModule</title>
<path fill="none" stroke="#000000" d="M152.3457,-122.0225C152.3457,-139.3734 152.3457,-163 152.3457,-163 152.3457,-163 263.0472,-163 263.0472,-163"/>
<polygon fill="#000000" stroke="#000000" points="263.0473,-166.5001 273.0472,-163 263.0472,-159.5001 263.0473,-166.5001"/>
</g>
<!-- MainToolbarComponent  -->
<g id="node5" class="node">
<title>MainToolbarComponent </title>
<polygon fill="#fb8072" stroke="#000000" points="624.2009,-252 465.7991,-252 465.7991,-216 624.2009,-216 624.2009,-252"/>
<text text-anchor="middle" x="545" y="-229.8" font-family="Times,serif" font-size="14.00" fill="#000000">MainToolbarComponent </text>
</g>
<!-- MainToolbarModule&#45;&gt;MainToolbarComponent  -->
<g id="edge4" class="edge">
<title>MainToolbarModule&#45;&gt;MainToolbarComponent </title>
<path fill="none" stroke="#000000" stroke-dasharray="5,2" d="M406.9035,-175C457.0173,-175 516.9666,-175 516.9666,-175 516.9666,-175 516.9666,-205.9775 516.9666,-205.9775"/>
<polygon fill="#000000" stroke="#000000" points="513.4667,-205.9774 516.9666,-215.9775 520.4667,-205.9775 513.4667,-205.9774"/>
</g>
<!-- RouteLoadingIndicatorComponent  -->
<g id="node6" class="node">
<title>RouteLoadingIndicatorComponent </title>
<polygon fill="#fb8072" stroke="#000000" points="447.9641,-252 232.0359,-252 232.0359,-216 447.9641,-216 447.9641,-252"/>
<text text-anchor="middle" x="340" y="-229.8" font-family="Times,serif" font-size="14.00" fill="#000000">RouteLoadingIndicatorComponent </text>
</g>
<!-- MainToolbarModule&#45;&gt;RouteLoadingIndicatorComponent  -->
<g id="edge5" class="edge">
<title>MainToolbarModule&#45;&gt;RouteLoadingIndicatorComponent </title>
<path fill="none" stroke="#000000" stroke-dasharray="5,2" d="M340,-187.1061C340,-187.1061 340,-205.991 340,-205.991"/>
<polygon fill="#000000" stroke="#000000" points="336.5001,-205.9909 340,-215.991 343.5001,-205.991 336.5001,-205.9909"/>
</g>
<!-- ToolbarSearchBoxComponent  -->
<g id="node7" class="node">
<title>ToolbarSearchBoxComponent </title>
<polygon fill="#fb8072" stroke="#000000" points="214.0749,-252 23.9251,-252 23.9251,-216 214.0749,-216 214.0749,-252"/>
<text text-anchor="middle" x="119" y="-229.8" font-family="Times,serif" font-size="14.00" fill="#000000">ToolbarSearchBoxComponent </text>
</g>
<!-- MainToolbarModule&#45;&gt;ToolbarSearchBoxComponent  -->
<g id="edge6" class="edge">
<title>MainToolbarModule&#45;&gt;ToolbarSearchBoxComponent </title>
<path fill="none" stroke="#000000" stroke-dasharray="5,2" d="M273.1129,-175C199.1797,-175 90.4043,-175 90.4043,-175 90.4043,-175 90.4043,-205.9775 90.4043,-205.9775"/>
<polygon fill="#000000" stroke="#000000" points="86.9044,-205.9774 90.4043,-215.9775 93.9044,-205.9775 86.9044,-205.9774"/>
</g>
</g>
</svg>
