<?xml version="1.0" encoding="UTF-8" standalone="no"?>
<!DOCTYPE svg PUBLIC "-//W3C//DTD SVG 1.1//EN"
 "http://www.w3.org/Graphics/SVG/1.1/DTD/svg11.dtd">
<!-- Generated by graphviz version 2.40.1 (20161225.0304)
 -->
<!-- Title: dependencies Pages: 1 -->
<svg width="1627pt" height="284pt"
 viewBox="0.00 0.00 1627.00 284.00" xmlns="http://www.w3.org/2000/svg" xmlns:xlink="http://www.w3.org/1999/xlink">
<g id="graph0" class="graph" transform="scale(1 1) rotate(0) translate(4 280)">
<title>dependencies</title>
<polygon fill="#ffffff" stroke="transparent" points="-4,4 -4,-280 1623,-280 1623,4 -4,4"/>
<text text-anchor="start" x="788.5091" y="-42.4" font-family="sans-serif" font-weight="bold" font-size="14.00" fill="#000000">Legend</text>
<polygon fill="#ffffb3" stroke="transparent" points="575.5,-10 575.5,-30 595.5,-30 595.5,-10 575.5,-10"/>
<text text-anchor="start" x="599.129" y="-15.4" font-family="sans-serif" font-size="14.00" fill="#000000"> &#160;Declarations</text>
<polygon fill="#8dd3c7" stroke="transparent" points="688.5,-10 688.5,-30 708.5,-30 708.5,-10 688.5,-10"/>
<text text-anchor="start" x="712.2251" y="-15.4" font-family="sans-serif" font-size="14.00" fill="#000000"> &#160;Module</text>
<polygon fill="#80b1d3" stroke="transparent" points="774.5,-10 774.5,-30 794.5,-30 794.5,-10 774.5,-10"/>
<text text-anchor="start" x="798.2812" y="-15.4" font-family="sans-serif" font-size="14.00" fill="#000000"> &#160;Bootstrap</text>
<polygon fill="#fdb462" stroke="transparent" points="871.5,-10 871.5,-30 891.5,-30 891.5,-10 871.5,-10"/>
<text text-anchor="start" x="895.1732" y="-15.4" font-family="sans-serif" font-size="14.00" fill="#000000"> &#160;Providers</text>
<polygon fill="#fb8072" stroke="transparent" points="967.5,-10 967.5,-30 987.5,-30 987.5,-10 967.5,-10"/>
<text text-anchor="start" x="991.2258" y="-15.4" font-family="sans-serif" font-size="14.00" fill="#000000"> &#160;Exports</text>
<g id="clust1" class="cluster">
<title>cluster_AppModule</title>
<polygon fill="none" stroke="#000000" stroke-dasharray="1,5" points="8,-70 8,-268 1611,-268 1611,-70 8,-70"/>
</g>
<g id="clust2" class="cluster">
<title>cluster_AppModule_declarations</title>
<polygon fill="none" stroke="#000000" points="1341,-78 1341,-130 1603,-130 1603,-78 1341,-78"/>
</g>
<g id="clust5" class="cluster">
<title>cluster_AppModule_imports</title>
<polygon fill="none" stroke="#000000" points="784,-78 784,-130 1333,-130 1333,-78 784,-78"/>
</g>
<g id="clust7" class="cluster">
<title>cluster_AppModule_bootstrap</title>
<polygon fill="none" stroke="#000000" points="849,-208 849,-260 973,-260 973,-208 849,-208"/>
</g>
<g id="clust8" class="cluster">
<title>cluster_AppModule_providers</title>
<polygon fill="none" stroke="#000000" points="16,-78 16,-130 776,-130 776,-78 16,-78"/>
</g>
<!-- AppComponent -->
<g id="node1" class="node">
<title>AppComponent</title>
<polygon fill="#ffffb3" stroke="#000000" points="1594.9399,-122 1489.0601,-122 1489.0601,-86 1594.9399,-86 1594.9399,-122"/>
<text text-anchor="middle" x="1542" y="-99.8" font-family="Times,serif" font-size="14.00" fill="#000000">AppComponent</text>
</g>
<!-- AppModule -->
<g id="node3" class="node">
<title>AppModule</title>
<polygon fill="#8dd3c7" stroke="#000000" points="952.6571,-187 949.6571,-191 928.6571,-191 925.6571,-187 869.3429,-187 869.3429,-151 952.6571,-151 952.6571,-187"/>
<text text-anchor="middle" x="911" y="-164.8" font-family="Times,serif" font-size="14.00" fill="#000000">AppModule</text>
</g>
<!-- AppComponent&#45;&gt;AppModule -->
<g id="edge1" class="edge">
<title>AppComponent&#45;&gt;AppModule</title>
<path fill="none" stroke="#000000" d="M1542,-122.0109C1542,-144.4852 1542,-180 1542,-180 1542,-180 962.8903,-180 962.8903,-180"/>
<polygon fill="#000000" stroke="#000000" points="962.8904,-176.5001 952.8903,-180 962.8903,-183.5001 962.8904,-176.5001"/>
</g>
<!-- DrawableDirective -->
<g id="node2" class="node">
<title>DrawableDirective</title>
<polygon fill="#ffffb3" stroke="#000000" points="1471.492,-122 1348.508,-122 1348.508,-86 1471.492,-86 1471.492,-122"/>
<text text-anchor="middle" x="1410" y="-99.8" font-family="Times,serif" font-size="14.00" fill="#000000">DrawableDirective</text>
</g>
<!-- DrawableDirective&#45;&gt;AppModule -->
<g id="edge2" class="edge">
<title>DrawableDirective&#45;&gt;AppModule</title>
<path fill="none" stroke="#000000" d="M1410,-122.1289C1410,-142.5724 1410,-173 1410,-173 1410,-173 962.6862,-173 962.6862,-173"/>
<polygon fill="#000000" stroke="#000000" points="962.6862,-169.5001 952.6862,-173 962.6861,-176.5001 962.6862,-169.5001"/>
</g>
<!-- AppComponent  -->
<g id="node8" class="node">
<title>AppComponent </title>
<polygon fill="#80b1d3" stroke="#000000" points="965.439,-252 856.561,-252 856.561,-216 965.439,-216 965.439,-252"/>
<text text-anchor="middle" x="911" y="-229.8" font-family="Times,serif" font-size="14.00" fill="#000000">AppComponent </text>
</g>
<!-- AppModule&#45;&gt;AppComponent  -->
<g id="edge7" class="edge">
<title>AppModule&#45;&gt;AppComponent </title>
<path fill="none" stroke="#000000" stroke-dasharray="1,5" d="M911,-187.1061C911,-187.1061 911,-205.991 911,-205.991"/>
<polygon fill="#000000" stroke="#000000" points="907.5001,-205.9909 911,-215.991 914.5001,-205.991 907.5001,-205.9909"/>
</g>
<!-- AppRoutingModule -->
<g id="node4" class="node">
<title>AppRoutingModule</title>
<polygon fill="#8dd3c7" stroke="#000000" points="1325.2744,-122 1322.2744,-126 1301.2744,-126 1298.2744,-122 1196.7256,-122 1196.7256,-86 1325.2744,-86 1325.2744,-122"/>
<text text-anchor="middle" x="1261" y="-99.8" font-family="Times,serif" font-size="14.00" fill="#000000">AppRoutingModule</text>
</g>
<!-- AppRoutingModule&#45;&gt;AppModule -->
<g id="edge3" class="edge">
<title>AppRoutingModule&#45;&gt;AppModule</title>
<path fill="none" stroke="#000000" d="M1261,-122.2667C1261,-140.5552 1261,-166 1261,-166 1261,-166 962.8705,-166 962.8705,-166"/>
<polygon fill="#000000" stroke="#000000" points="962.8706,-162.5001 952.8705,-166 962.8705,-169.5001 962.8706,-162.5001"/>
</g>
<!-- MainMapModule -->
<g id="node5" class="node">
<title>MainMapModule</title>
<polygon fill="#8dd3c7" stroke="#000000" points="1178.2591,-122 1175.2591,-126 1154.2591,-126 1151.2591,-122 1063.7409,-122 1063.7409,-86 1178.2591,-86 1178.2591,-122"/>
<text text-anchor="middle" x="1121" y="-99.8" font-family="Times,serif" font-size="14.00" fill="#000000">MainMapModule</text>
</g>
<!-- MainMapModule&#45;&gt;AppModule -->
<g id="edge4" class="edge">
<title>MainMapModule&#45;&gt;AppModule</title>
<path fill="none" stroke="#000000" d="M1121,-122.0091C1121,-138.0494 1121,-159 1121,-159 1121,-159 962.7403,-159 962.7403,-159"/>
<polygon fill="#000000" stroke="#000000" points="962.7404,-155.5001 952.7403,-159 962.7403,-162.5001 962.7404,-155.5001"/>
</g>
<!-- MainToolbarModule -->
<g id="node6" class="node">
<title>MainToolbarModule</title>
<polygon fill="#8dd3c7" stroke="#000000" points="1045.9187,-122 1042.9187,-126 1021.9187,-126 1018.9187,-122 912.0813,-122 912.0813,-86 1045.9187,-86 1045.9187,-122"/>
<text text-anchor="middle" x="979" y="-99.8" font-family="Times,serif" font-size="14.00" fill="#000000">MainToolbarModule</text>
</g>
<!-- MainToolbarModule&#45;&gt;AppModule -->
<g id="edge5" class="edge">
<title>MainToolbarModule&#45;&gt;AppModule</title>
<path fill="none" stroke="#000000" d="M932.5596,-122.1061C932.5596,-122.1061 932.5596,-140.991 932.5596,-140.991"/>
<polygon fill="#000000" stroke="#000000" points="929.0597,-140.9909 932.5596,-150.991 936.0597,-140.991 929.0597,-140.9909"/>
</g>
<!-- SidebarModule -->
<g id="node7" class="node">
<title>SidebarModule</title>
<polygon fill="#8dd3c7" stroke="#000000" points="894.3133,-122 891.3133,-126 870.3133,-126 867.3133,-122 791.6867,-122 791.6867,-86 894.3133,-86 894.3133,-122"/>
<text text-anchor="middle" x="843" y="-99.8" font-family="Times,serif" font-size="14.00" fill="#000000">SidebarModule</text>
</g>
<!-- SidebarModule&#45;&gt;AppModule -->
<g id="edge6" class="edge">
<title>SidebarModule&#45;&gt;AppModule</title>
<path fill="none" stroke="#000000" d="M881.6641,-122.1061C881.6641,-122.1061 881.6641,-140.991 881.6641,-140.991"/>
<polygon fill="#000000" stroke="#000000" points="878.1642,-140.9909 881.6641,-150.991 885.1642,-140.991 878.1642,-140.9909"/>
</g>
<!-- AppNotificationService -->
<g id="node9" class="node">
<title>AppNotificationService</title>
<ellipse fill="#fdb462" stroke="#000000" cx="665" cy="-104" rx="103.0675" ry="18"/>
<text text-anchor="middle" x="665" y="-99.8" font-family="Times,serif" font-size="14.00" fill="#000000">AppNotificationService</text>
</g>
<!-- AppNotificationService&#45;&gt;AppModule -->
<g id="edge8" class="edge">
<title>AppNotificationService&#45;&gt;AppModule</title>
<path fill="none" stroke="#000000" d="M665,-122.0091C665,-138.0494 665,-159 665,-159 665,-159 859.2695,-159 859.2695,-159"/>
<polygon fill="#000000" stroke="#000000" points="859.2695,-162.5001 869.2695,-159 859.2694,-155.5001 859.2695,-162.5001"/>
</g>
<!-- SettingsService -->
<g id="node10" class="node">
<title>SettingsService</title>
<ellipse fill="#fdb462" stroke="#000000" cx="473" cy="-104" rx="71.221" ry="18"/>
<text text-anchor="middle" x="473" y="-99.8" font-family="Times,serif" font-size="14.00" fill="#000000">SettingsService</text>
</g>
<!-- SettingsService&#45;&gt;AppModule -->
<g id="edge9" class="edge">
<title>SettingsService&#45;&gt;AppModule</title>
<path fill="none" stroke="#000000" d="M473,-122.2667C473,-140.5552 473,-166 473,-166 473,-166 859.0027,-166 859.0027,-166"/>
<polygon fill="#000000" stroke="#000000" points="859.0028,-169.5001 869.0027,-166 859.0027,-162.5001 859.0028,-169.5001"/>
</g>
<!-- StopPointService -->
<g id="node11" class="node">
<title>StopPointService</title>
<ellipse fill="#fdb462" stroke="#000000" cx="306" cy="-104" rx="78.1868" ry="18"/>
<text text-anchor="middle" x="306" y="-99.8" font-family="Times,serif" font-size="14.00" fill="#000000">StopPointService</text>
</g>
<!-- StopPointService&#45;&gt;AppModule -->
<g id="edge10" class="edge">
<title>StopPointService&#45;&gt;AppModule</title>
<path fill="none" stroke="#000000" d="M306,-122.1289C306,-142.5724 306,-173 306,-173 306,-173 858.9379,-173 858.9379,-173"/>
<polygon fill="#000000" stroke="#000000" points="858.9379,-176.5001 868.9379,-173 858.9379,-169.5001 858.9379,-176.5001"/>
</g>
<!-- UserLocationService -->
<g id="node12" class="node">
<title>UserLocationService</title>
<ellipse fill="#fdb462" stroke="#000000" cx="117" cy="-104" rx="92.5919" ry="18"/>
<text text-anchor="middle" x="117" y="-99.8" font-family="Times,serif" font-size="14.00" fill="#000000">UserLocationService</text>
</g>
<!-- UserLocationService&#45;&gt;AppModule -->
<g id="edge11" class="edge">
<title>UserLocationService&#45;&gt;AppModule</title>
<path fill="none" stroke="#000000" d="M117,-122.0109C117,-144.4852 117,-180 117,-180 117,-180 859.1508,-180 859.1508,-180"/>
<polygon fill="#000000" stroke="#000000" points="859.1508,-183.5001 869.1508,-180 859.1507,-176.5001 859.1508,-183.5001"/>
</g>
</g>
</svg>
