<?xml version="1.0" encoding="UTF-8" standalone="no"?>
<!DOCTYPE svg PUBLIC "-//W3C//DTD SVG 1.1//EN"
 "http://www.w3.org/Graphics/SVG/1.1/DTD/svg11.dtd">
<!-- Generated by graphviz version 2.40.1 (20161225.0304)
 -->
<!-- Title: dependencies Pages: 1 -->
<svg width="1403pt" height="284pt"
 viewBox="0.00 0.00 1403.00 284.00" xmlns="http://www.w3.org/2000/svg" xmlns:xlink="http://www.w3.org/1999/xlink">
<g id="graph0" class="graph" transform="scale(1 1) rotate(0) translate(4 280)">
<title>dependencies</title>
<polygon fill="#ffffff" stroke="transparent" points="-4,4 -4,-280 1399,-280 1399,4 -4,4"/>
<text text-anchor="start" x="676.5091" y="-42.4" font-family="sans-serif" font-weight="bold" font-size="14.00" fill="#000000">Legend</text>
<polygon fill="#ffffb3" stroke="transparent" points="463.5,-10 463.5,-30 483.5,-30 483.5,-10 463.5,-10"/>
<text text-anchor="start" x="487.129" y="-15.4" font-family="sans-serif" font-size="14.00" fill="#000000"> &#160;Declarations</text>
<polygon fill="#8dd3c7" stroke="transparent" points="576.5,-10 576.5,-30 596.5,-30 596.5,-10 576.5,-10"/>
<text text-anchor="start" x="600.2251" y="-15.4" font-family="sans-serif" font-size="14.00" fill="#000000"> &#160;Module</text>
<polygon fill="#80b1d3" stroke="transparent" points="662.5,-10 662.5,-30 682.5,-30 682.5,-10 662.5,-10"/>
<text text-anchor="start" x="686.2812" y="-15.4" font-family="sans-serif" font-size="14.00" fill="#000000"> &#160;Bootstrap</text>
<polygon fill="#fdb462" stroke="transparent" points="759.5,-10 759.5,-30 779.5,-30 779.5,-10 759.5,-10"/>
<text text-anchor="start" x="783.1732" y="-15.4" font-family="sans-serif" font-size="14.00" fill="#000000"> &#160;Providers</text>
<polygon fill="#fb8072" stroke="transparent" points="855.5,-10 855.5,-30 875.5,-30 875.5,-10 855.5,-10"/>
<text text-anchor="start" x="879.2258" y="-15.4" font-family="sans-serif" font-size="14.00" fill="#000000"> &#160;Exports</text>
<g id="clust1" class="cluster">
<title>cluster_AppModule</title>
<polygon fill="none" stroke="#000000" stroke-dasharray="1,5" points="8,-70 8,-268 1387,-268 1387,-70 8,-70"/>
</g>
<g id="clust2" class="cluster">
<title>cluster_AppModule_declarations</title>
<polygon fill="none" stroke="#000000" points="1117,-78 1117,-130 1379,-130 1379,-78 1117,-78"/>
</g>
<g id="clust5" class="cluster">
<title>cluster_AppModule_imports</title>
<polygon fill="none" stroke="#000000" points="560,-78 560,-130 1109,-130 1109,-78 560,-78"/>
</g>
<g id="clust7" class="cluster">
<title>cluster_AppModule_bootstrap</title>
<polygon fill="none" stroke="#000000" points="693,-208 693,-260 817,-260 817,-208 693,-208"/>
</g>
<g id="clust8" class="cluster">
<title>cluster_AppModule_providers</title>
<polygon fill="none" stroke="#000000" points="16,-78 16,-130 552,-130 552,-78 16,-78"/>
</g>
<!-- AppComponent -->
<g id="node1" class="node">
<title>AppComponent</title>
<polygon fill="#ffffb3" stroke="#000000" points="1370.9399,-122 1265.0601,-122 1265.0601,-86 1370.9399,-86 1370.9399,-122"/>
<text text-anchor="middle" x="1318" y="-99.8" font-family="Times,serif" font-size="14.00" fill="#000000">AppComponent</text>
</g>
<!-- AppModule -->
<g id="node3" class="node">
<title>AppModule</title>
<polygon fill="#8dd3c7" stroke="#000000" points="796.6571,-187 793.6571,-191 772.6571,-191 769.6571,-187 713.3429,-187 713.3429,-151 796.6571,-151 796.6571,-187"/>
<text text-anchor="middle" x="755" y="-164.8" font-family="Times,serif" font-size="14.00" fill="#000000">AppModule</text>
</g>
<!-- AppComponent&#45;&gt;AppModule -->
<g id="edge1" class="edge">
<title>AppComponent&#45;&gt;AppModule</title>
<path fill="none" stroke="#000000" d="M1318,-122.0109C1318,-144.4852 1318,-180 1318,-180 1318,-180 806.8565,-180 806.8565,-180"/>
<polygon fill="#000000" stroke="#000000" points="806.8566,-176.5001 796.8565,-180 806.8565,-183.5001 806.8566,-176.5001"/>
</g>
<!-- DrawableDirective -->
<g id="node2" class="node">
<title>DrawableDirective</title>
<polygon fill="#ffffb3" stroke="#000000" points="1247.492,-122 1124.508,-122 1124.508,-86 1247.492,-86 1247.492,-122"/>
<text text-anchor="middle" x="1186" y="-99.8" font-family="Times,serif" font-size="14.00" fill="#000000">DrawableDirective</text>
</g>
<!-- DrawableDirective&#45;&gt;AppModule -->
<g id="edge2" class="edge">
<title>DrawableDirective&#45;&gt;AppModule</title>
<path fill="none" stroke="#000000" d="M1186,-122.1289C1186,-142.5724 1186,-173 1186,-173 1186,-173 806.7177,-173 806.7177,-173"/>
<polygon fill="#000000" stroke="#000000" points="806.7177,-169.5001 796.7177,-173 806.7177,-176.5001 806.7177,-169.5001"/>
</g>
<!-- AppComponent  -->
<g id="node8" class="node">
<title>AppComponent </title>
<polygon fill="#80b1d3" stroke="#000000" points="809.439,-252 700.561,-252 700.561,-216 809.439,-216 809.439,-252"/>
<text text-anchor="middle" x="755" y="-229.8" font-family="Times,serif" font-size="14.00" fill="#000000">AppComponent </text>
</g>
<!-- AppModule&#45;&gt;AppComponent  -->
<g id="edge7" class="edge">
<title>AppModule&#45;&gt;AppComponent </title>
<path fill="none" stroke="#000000" stroke-dasharray="1,5" d="M755,-187.1061C755,-187.1061 755,-205.991 755,-205.991"/>
<polygon fill="#000000" stroke="#000000" points="751.5001,-205.9909 755,-215.991 758.5001,-205.991 751.5001,-205.9909"/>
</g>
<!-- AppRoutingModule -->
<g id="node4" class="node">
<title>AppRoutingModule</title>
<polygon fill="#8dd3c7" stroke="#000000" points="1101.2744,-122 1098.2744,-126 1077.2744,-126 1074.2744,-122 972.7256,-122 972.7256,-86 1101.2744,-86 1101.2744,-122"/>
<text text-anchor="middle" x="1037" y="-99.8" font-family="Times,serif" font-size="14.00" fill="#000000">AppRoutingModule</text>
</g>
<!-- AppRoutingModule&#45;&gt;AppModule -->
<g id="edge3" class="edge">
<title>AppRoutingModule&#45;&gt;AppModule</title>
<path fill="none" stroke="#000000" d="M1037,-122.2667C1037,-140.5552 1037,-166 1037,-166 1037,-166 806.9137,-166 806.9137,-166"/>
<polygon fill="#000000" stroke="#000000" points="806.9138,-162.5001 796.9137,-166 806.9137,-169.5001 806.9138,-162.5001"/>
</g>
<!-- MainMapModule -->
<g id="node5" class="node">
<title>MainMapModule</title>
<polygon fill="#8dd3c7" stroke="#000000" points="954.2591,-122 951.2591,-126 930.2591,-126 927.2591,-122 839.7409,-122 839.7409,-86 954.2591,-86 954.2591,-122"/>
<text text-anchor="middle" x="897" y="-99.8" font-family="Times,serif" font-size="14.00" fill="#000000">MainMapModule</text>
</g>
<!-- MainMapModule&#45;&gt;AppModule -->
<g id="edge4" class="edge">
<title>MainMapModule&#45;&gt;AppModule</title>
<path fill="none" stroke="#000000" d="M897,-122.0091C897,-138.0494 897,-159 897,-159 897,-159 806.8367,-159 806.8367,-159"/>
<polygon fill="#000000" stroke="#000000" points="806.8367,-155.5001 796.8367,-159 806.8366,-162.5001 806.8367,-155.5001"/>
</g>
<!-- MainToolbarModule -->
<g id="node6" class="node">
<title>MainToolbarModule</title>
<polygon fill="#8dd3c7" stroke="#000000" points="821.9187,-122 818.9187,-126 797.9187,-126 794.9187,-122 688.0813,-122 688.0813,-86 821.9187,-86 821.9187,-122"/>
<text text-anchor="middle" x="755" y="-99.8" font-family="Times,serif" font-size="14.00" fill="#000000">MainToolbarModule</text>
</g>
<!-- MainToolbarModule&#45;&gt;AppModule -->
<g id="edge5" class="edge">
<title>MainToolbarModule&#45;&gt;AppModule</title>
<path fill="none" stroke="#000000" d="M755,-122.1061C755,-122.1061 755,-140.991 755,-140.991"/>
<polygon fill="#000000" stroke="#000000" points="751.5001,-140.9909 755,-150.991 758.5001,-140.991 751.5001,-140.9909"/>
</g>
<!-- SidebarModule -->
<g id="node7" class="node">
<title>SidebarModule</title>
<polygon fill="#8dd3c7" stroke="#000000" points="670.3133,-122 667.3133,-126 646.3133,-126 643.3133,-122 567.6867,-122 567.6867,-86 670.3133,-86 670.3133,-122"/>
<text text-anchor="middle" x="619" y="-99.8" font-family="Times,serif" font-size="14.00" fill="#000000">SidebarModule</text>
</g>
<!-- SidebarModule&#45;&gt;AppModule -->
<g id="edge6" class="edge">
<title>SidebarModule&#45;&gt;AppModule</title>
<path fill="none" stroke="#000000" d="M619,-122.0091C619,-138.0494 619,-159 619,-159 619,-159 703.0858,-159 703.0858,-159"/>
<polygon fill="#000000" stroke="#000000" points="703.0858,-162.5001 713.0858,-159 703.0858,-155.5001 703.0858,-162.5001"/>
</g>
<!-- SettingsService -->
<g id="node9" class="node">
<title>SettingsService</title>
<ellipse fill="#fdb462" stroke="#000000" cx="473" cy="-104" rx="71.221" ry="18"/>
<text text-anchor="middle" x="473" y="-99.8" font-family="Times,serif" font-size="14.00" fill="#000000">SettingsService</text>
</g>
<!-- SettingsService&#45;&gt;AppModule -->
<g id="edge8" class="edge">
<title>SettingsService&#45;&gt;AppModule</title>
<path fill="none" stroke="#000000" d="M473,-122.2667C473,-140.5552 473,-166 473,-166 473,-166 703.0863,-166 703.0863,-166"/>
<polygon fill="#000000" stroke="#000000" points="703.0863,-169.5001 713.0863,-166 703.0862,-162.5001 703.0863,-169.5001"/>
</g>
<!-- StopPointService -->
<g id="node10" class="node">
<title>StopPointService</title>
<ellipse fill="#fdb462" stroke="#000000" cx="306" cy="-104" rx="78.1868" ry="18"/>
<text text-anchor="middle" x="306" y="-99.8" font-family="Times,serif" font-size="14.00" fill="#000000">StopPointService</text>
</g>
<!-- StopPointService&#45;&gt;AppModule -->
<g id="edge9" class="edge">
<title>StopPointService&#45;&gt;AppModule</title>
<path fill="none" stroke="#000000" d="M306,-122.1289C306,-142.5724 306,-173 306,-173 306,-173 703.1624,-173 703.1624,-173"/>
<polygon fill="#000000" stroke="#000000" points="703.1624,-176.5001 713.1624,-173 703.1623,-169.5001 703.1624,-176.5001"/>
</g>
<!-- UserLocationService -->
<g id="node11" class="node">
<title>UserLocationService</title>
<ellipse fill="#fdb462" stroke="#000000" cx="117" cy="-104" rx="92.5919" ry="18"/>
<text text-anchor="middle" x="117" y="-99.8" font-family="Times,serif" font-size="14.00" fill="#000000">UserLocationService</text>
</g>
<!-- UserLocationService&#45;&gt;AppModule -->
<g id="edge10" class="edge">
<title>UserLocationService&#45;&gt;AppModule</title>
<path fill="none" stroke="#000000" d="M117,-122.0109C117,-144.4852 117,-180 117,-180 117,-180 703.139,-180 703.139,-180"/>
<polygon fill="#000000" stroke="#000000" points="703.1391,-183.5001 713.139,-180 703.139,-176.5001 703.1391,-183.5001"/>
</g>
</g>
</svg>
